<svg xmlns="http://www.w3.org/2000/svg" viewBox="0 0 1333.33 1278.48" shape-rendering="geometricPrecision" text-rendering="geometricPrecision" image-rendering="optimizeQuality" fill-rule="evenodd" clip-rule="evenodd"><path d="M1332.19 178.59c0 58.52-47.87 106.4-106.39 106.4h-225.35c15.81-31.68 24.72-67.41 24.72-105.22 0-38.75-9.34-75.31-25.9-107.57h226.52c58.52 0 106.39 47.87 106.39 106.39zm-363.17 920.12c0 99.28-80.49 179.77-179.77 179.77-99.28 0-179.77-80.48-179.77-179.77 0-99.28 80.48-179.77 179.77-179.77 99.28 0 179.77 80.49 179.77 179.77zm364.19-1.18c0 58.52-47.88 106.39-106.39 106.39h-226.37c15.81-31.68 24.72-67.4 24.72-105.21 0-38.75-9.34-75.32-25.9-107.57h227.54c58.52 0 106.39 47.87 106.39 106.39zm-755.17 106.39H106.51c-58.52 0-106.39-47.87-106.39-106.39s47.87-106.39 106.39-106.39h472.71c-16.55 32.25-25.9 68.82-25.9 107.57 0 37.81 8.91 73.54 24.72 105.21zM307.36 637.11c0 99.28 80.49 179.77 179.77 179.77 99.28 0 179.78-80.49 179.78-179.77 0-99.28-80.49-179.77-179.78-179.77-99.28 0-179.77 80.49-179.77 179.77zM0 635.93c0 58.52 47.89 106.39 106.39 106.39h170.08c-15.81-31.68-24.72-66.93-24.72-105.21 0-38.28 9.35-75.31 25.9-107.57H106.39C47.87 529.54 0 577.41 0 635.93zm698.88 106.39h528.06c58.5 0 106.39-47.87 106.39-106.39s-47.88-106.39-106.39-106.39H697.71c16.55 32.26 25.9 69.29 25.9 107.57 0 38.28-8.91 73.54-24.72 105.21zm270.14-562.56c0 99.28-80.49 179.77-179.77 179.77-99.28 0-179.77-80.48-179.77-179.77S689.96-.01 789.25-.01c99.28 0 179.77 80.48 179.77 179.77zM578.04 284.98H106.91C48.4 284.98.52 237.1.52 178.58c0-58.51 47.88-106.39 106.39-106.39h472.31c-16.55 32.25-25.9 68.82-25.9 107.57 0 37.81 8.91 73.54 24.72 105.22z"/></svg>