<?xml version="1.0" encoding="UTF-8" standalone="no"?>
<!DOCTYPE svg PUBLIC "-//W3C//DTD SVG 1.1//EN" "http://www.w3.org/Graphics/SVG/1.1/DTD/svg11.dtd">
<svg width="100%" height="100%" viewBox="0 0 1021 267" version="1.1" xmlns="http://www.w3.org/2000/svg" xmlns:xlink="http://www.w3.org/1999/xlink" xml:space="preserve" xmlns:serif="http://www.serif.com/" style="fill-rule:evenodd;clip-rule:evenodd;stroke-linejoin:round;stroke-miterlimit:1.41421;">
    <g transform="matrix(4.16667,0,0,4.16667,0,0)">
        <rect x="1.798" y="2.222" width="89.916" height="59.945" style="fill:rgb(7,78,162);fill-rule:nonzero;"/>
        <path d="M44.84,15.283L46.738,13.898L48.634,15.283L47.913,13.044L49.839,11.659L47.465,11.659L46.738,9.393L46.01,11.662L43.636,11.659L45.562,13.044L44.84,15.283Z" style="fill:rgb(255,242,0);fill-rule:nonzero;"/>
        <path d="M35.021,17.921L36.918,16.537L38.815,17.921L38.094,15.683L40.02,14.298L37.645,14.298L36.917,12.029L36.19,14.3L33.816,14.298L35.742,15.683L35.021,17.921Z" style="fill:rgb(255,242,0);fill-rule:nonzero;"/>
        <path d="M29.734,19.229L29.008,21.5L26.633,21.498L28.559,22.882L27.836,25.122L29.734,23.738L31.631,25.122L30.909,22.882L32.835,21.498L30.461,21.498L29.734,19.229Z" style="fill:rgb(255,242,0);fill-rule:nonzero;"/>
        <path d="M27.098,33.543L28.995,34.928L28.273,32.689L30.2,31.305L27.826,31.305L27.098,29.036L26.372,31.31L23.997,31.305L25.923,32.689L25.202,34.928L27.098,33.543Z" style="fill:rgb(255,242,0);fill-rule:nonzero;"/>
        <path d="M30.461,41.141L29.734,38.872L29.008,41.143L26.633,41.141L28.559,42.526L27.836,44.765L29.734,43.377L31.631,44.765L30.909,42.526L32.835,41.141L30.461,41.141Z" style="fill:rgb(255,242,0);fill-rule:nonzero;"/>
        <path d="M37.659,48.338L36.932,46.072L36.207,48.341L33.831,48.338L35.757,49.723L35.036,51.962L36.933,50.578L38.83,51.962L38.108,49.723L40.035,48.338L37.659,48.338Z" style="fill:rgb(255,242,0);fill-rule:nonzero;"/>
        <path d="M47.466,50.947L46.739,48.678L46.013,50.949L43.637,50.947L45.563,52.332L44.842,54.571L46.74,53.186L48.636,54.571L47.914,52.332L49.841,50.947L47.466,50.947Z" style="fill:rgb(255,242,0);fill-rule:nonzero;"/>
        <path d="M57.272,48.338L56.546,46.072L55.818,48.341L53.445,48.338L55.37,49.723L54.649,51.962L56.546,50.578L58.443,51.962L57.72,49.723L59.647,48.338L57.272,48.338Z" style="fill:rgb(255,242,0);fill-rule:nonzero;"/>
        <path d="M64.473,41.141L63.744,38.872L63.016,41.143L60.643,41.141L62.57,42.526L61.847,44.765L63.744,43.377L65.642,44.765L64.919,42.526L66.845,41.141L64.473,41.141Z" style="fill:rgb(255,242,0);fill-rule:nonzero;"/>
        <path d="M69.454,31.277L67.079,31.277L66.35,29.008L65.624,31.28L63.249,31.277L65.176,32.662L64.455,34.901L66.35,33.514L68.248,34.901L67.527,32.662L69.454,31.277Z" style="fill:rgb(255,242,0);fill-rule:nonzero;"/>
        <path d="M61.847,25.092L63.744,23.708L65.642,25.092L64.919,22.853L66.845,21.472L64.473,21.472L63.744,19.202L63.016,21.474L60.643,21.472L62.57,22.853L61.847,25.092Z" style="fill:rgb(255,242,0);fill-rule:nonzero;"/>
        <path d="M56.574,12.031L55.848,14.303L53.472,14.298L55.397,15.685L54.676,17.924L56.576,16.537L58.471,17.924L57.75,15.685L59.677,14.298L57.299,14.298L56.574,12.031Z" style="fill:rgb(255,242,0);fill-rule:nonzero;"/>
        <path d="M111.111,21.657L103.868,21.657L103.868,11.643L111.111,11.643L111.111,13.58L106.437,13.58L106.437,15.308L110.775,15.308L110.775,17.245L106.437,17.245L106.437,19.72L111.111,19.72L111.111,21.657Z" style="fill:rgb(35,31,32);fill-rule:nonzero;"/>
        <path d="M120.521,21.657L118.093,21.657L118.093,20.823C117.646,21.164 117.236,21.422 116.864,21.6C116.493,21.777 116.049,21.865 115.535,21.865C114.702,21.865 114.06,21.625 113.61,21.146C113.16,20.666 112.935,19.958 112.935,19.021L112.935,14.104L115.363,14.104L115.363,17.85C115.363,18.231 115.375,18.549 115.4,18.802C115.425,19.055 115.482,19.265 115.572,19.431C115.657,19.597 115.786,19.718 115.958,19.794C116.131,19.87 116.372,19.908 116.681,19.908C116.887,19.908 117.116,19.87 117.367,19.794C117.618,19.718 117.86,19.605 118.093,19.458L118.093,14.104L120.521,14.104L120.521,21.657Z" style="fill:rgb(35,31,32);fill-rule:nonzero;"/>
        <path d="M128.113,16.411L127.898,16.411C127.795,16.375 127.629,16.349 127.401,16.331C127.173,16.312 126.983,16.304 126.831,16.304C126.486,16.304 126.182,16.326 125.918,16.371C125.654,16.416 125.37,16.492 125.066,16.6L125.066,21.657L122.638,21.657L122.638,14.104L125.066,14.104L125.066,15.214C125.599,14.757 126.062,14.453 126.455,14.303C126.849,14.153 127.211,14.078 127.542,14.078C127.627,14.078 127.724,14.08 127.831,14.084C127.938,14.089 128.032,14.096 128.113,14.104L128.113,16.411Z" style="fill:rgb(35,31,32);fill-rule:nonzero;"/>
        <path d="M134.316,19.72C134.474,19.527 134.591,19.295 134.67,19.024C134.748,18.752 134.788,18.377 134.788,17.897C134.788,17.454 134.747,17.082 134.667,16.781C134.585,16.48 134.474,16.241 134.33,16.062C134.187,15.877 134.014,15.748 133.812,15.671C133.61,15.595 133.393,15.557 133.16,15.557C132.927,15.557 132.719,15.588 132.538,15.651C132.356,15.714 132.183,15.839 132.017,16.028C131.869,16.203 131.751,16.442 131.664,16.748C131.576,17.052 131.532,17.436 131.532,17.897C131.532,18.31 131.57,18.667 131.647,18.97C131.723,19.272 131.835,19.516 131.983,19.7C132.126,19.875 132.298,20.002 132.498,20.083C132.697,20.164 132.924,20.204 133.18,20.204C133.4,20.204 133.609,20.167 133.809,20.093C134.008,20.019 134.178,19.895 134.316,19.72ZM137.296,17.884C137.296,19.126 136.934,20.104 136.21,20.819C135.486,21.535 134.469,21.892 133.16,21.892C131.851,21.892 130.834,21.535 130.11,20.819C129.386,20.104 129.024,19.126 129.024,17.884C129.024,16.633 129.388,15.651 130.117,14.938C130.845,14.226 131.86,13.869 133.16,13.869C134.478,13.869 135.497,14.228 136.216,14.945C136.936,15.663 137.296,16.642 137.296,17.884Z" style="fill:rgb(35,31,32);fill-rule:nonzero;"/>
        <path d="M144.347,17.827C144.347,17.093 144.221,16.56 143.971,16.229C143.72,15.897 143.324,15.732 142.783,15.732C142.555,15.732 142.32,15.767 142.079,15.836C141.837,15.905 141.606,16.005 141.388,16.135L141.388,19.929C141.548,19.991 141.721,20.032 141.904,20.049C142.087,20.067 142.269,20.076 142.448,20.076C143.087,20.076 143.563,19.89 143.877,19.516C144.19,19.142 144.347,18.579 144.347,17.827ZM146.841,17.776C146.841,18.399 146.746,18.967 146.556,19.478C146.366,19.989 146.116,20.41 145.807,20.742C145.485,21.092 145.12,21.356 144.712,21.536C144.305,21.715 143.868,21.805 143.402,21.805C142.973,21.805 142.607,21.759 142.308,21.667C142.007,21.575 141.701,21.446 141.388,21.28L141.388,24.428L138.959,24.428L138.959,14.104L141.388,14.104L141.388,14.891C141.759,14.595 142.139,14.355 142.526,14.172C142.913,13.988 143.36,13.896 143.866,13.896C144.806,13.896 145.537,14.241 146.059,14.932C146.581,15.622 146.841,16.57 146.841,17.776Z" style="fill:rgb(35,31,32);fill-rule:nonzero;"/>
        <path d="M154.699,13.028L152.701,13.028L152.701,11.192L154.699,11.192L154.699,13.028ZM153.091,19.681L153.091,18.113C152.764,18.14 152.41,18.176 152.029,18.223C151.647,18.27 151.358,18.325 151.161,18.388C150.919,18.463 150.734,18.574 150.606,18.719C150.479,18.865 150.415,19.056 150.415,19.292C150.415,19.449 150.428,19.576 150.455,19.675C150.482,19.773 150.549,19.867 150.657,19.956C150.76,20.045 150.883,20.111 151.027,20.154C151.17,20.196 151.395,20.218 151.699,20.218C151.941,20.218 152.187,20.168 152.436,20.07C152.685,19.972 152.903,19.842 153.091,19.681ZM151.087,13.028L149.09,13.028L149.09,11.192L151.087,11.192L151.087,13.028ZM153.091,20.856C152.961,20.955 152.8,21.074 152.607,21.213C152.415,21.352 152.233,21.462 152.063,21.542C151.825,21.65 151.578,21.729 151.323,21.781C151.067,21.833 150.787,21.858 150.482,21.858C149.765,21.858 149.164,21.637 148.68,21.193C148.195,20.749 147.953,20.182 147.953,19.491C147.953,18.94 148.077,18.489 148.323,18.14C148.57,17.79 148.919,17.514 149.373,17.312C149.821,17.11 150.376,16.967 151.04,16.882C151.704,16.797 152.392,16.734 153.105,16.693L153.105,16.653C153.105,16.236 152.935,15.948 152.594,15.789C152.253,15.63 151.751,15.55 151.087,15.55C150.688,15.55 150.262,15.621 149.81,15.762C149.356,15.903 149.032,16.012 148.834,16.088L148.612,16.088L148.612,14.266C148.868,14.199 149.284,14.119 149.86,14.027C150.436,13.935 151.013,13.889 151.592,13.889C152.968,13.889 153.962,14.101 154.574,14.525C155.186,14.948 155.492,15.613 155.492,16.519L155.492,21.657L153.091,21.657L153.091,20.856Z" style="fill:rgb(35,31,32);fill-rule:nonzero;"/>
        <path d="M159.985,21.657L157.557,21.657L157.557,14.104L159.985,14.104L159.985,21.657ZM160.052,13.028L157.49,13.028L157.49,11.192L160.052,11.192L160.052,13.028Z" style="fill:rgb(35,31,32);fill-rule:nonzero;"/>
        <path d="M168.819,19.263C168.819,20.042 168.469,20.671 167.77,21.149C167.07,21.626 166.113,21.865 164.898,21.865C164.226,21.865 163.616,21.802 163.069,21.677C162.522,21.551 162.083,21.413 161.75,21.26L161.75,19.27L161.973,19.27C162.094,19.354 162.234,19.448 162.393,19.548C162.552,19.649 162.777,19.758 163.069,19.875C163.32,19.978 163.604,20.066 163.923,20.14C164.241,20.214 164.582,20.251 164.945,20.251C165.42,20.251 165.772,20.199 166.001,20.093C166.229,19.988 166.344,19.832 166.344,19.626C166.344,19.442 166.277,19.309 166.142,19.226C166.008,19.143 165.752,19.063 165.375,18.987C165.196,18.946 164.953,18.903 164.646,18.856C164.339,18.809 164.06,18.751 163.809,18.684C163.123,18.505 162.614,18.226 162.282,17.847C161.95,17.468 161.784,16.996 161.784,16.431C161.784,15.705 162.128,15.101 162.816,14.619C163.505,14.137 164.445,13.896 165.638,13.896C166.203,13.896 166.744,13.953 167.262,14.067C167.78,14.182 168.185,14.304 168.476,14.434L168.476,16.344L168.268,16.344C167.909,16.097 167.5,15.896 167.04,15.742C166.581,15.587 166.115,15.51 165.645,15.51C165.254,15.51 164.926,15.564 164.659,15.671C164.393,15.779 164.259,15.932 164.259,16.129C164.259,16.308 164.32,16.445 164.441,16.539C164.562,16.633 164.847,16.727 165.295,16.821C165.542,16.871 165.807,16.919 166.092,16.966C166.376,17.013 166.662,17.073 166.949,17.144C167.586,17.31 168.057,17.571 168.361,17.928C168.667,18.284 168.819,18.729 168.819,19.263Z" style="fill:rgb(35,31,32);fill-rule:nonzero;"/>
        <path d="M174.381,21.858C173.722,21.858 173.12,21.78 172.575,21.623C172.03,21.466 171.556,21.224 171.153,20.897C170.753,20.569 170.444,20.157 170.225,19.659C170.005,19.162 169.895,18.579 169.895,17.911C169.895,17.207 170.013,16.6 170.248,16.088C170.483,15.577 170.812,15.153 171.233,14.817C171.641,14.499 172.112,14.266 172.646,14.118C173.179,13.97 173.733,13.896 174.307,13.896C174.822,13.896 175.297,13.952 175.732,14.064C176.167,14.176 176.573,14.322 176.95,14.501L176.95,16.566L176.607,16.566C176.513,16.485 176.4,16.391 176.268,16.283C176.136,16.176 175.974,16.07 175.781,15.967C175.598,15.869 175.396,15.787 175.177,15.722C174.958,15.657 174.702,15.625 174.412,15.625C173.767,15.625 173.271,15.83 172.924,16.24C172.577,16.65 172.403,17.207 172.403,17.911C172.403,18.637 172.582,19.188 172.938,19.565C173.293,19.942 173.798,20.13 174.452,20.13C174.756,20.13 175.03,20.095 175.274,20.026C175.518,19.957 175.721,19.875 175.882,19.78C176.034,19.691 176.168,19.597 176.285,19.498C176.401,19.399 176.509,19.303 176.607,19.209L176.95,19.209L176.95,21.273C176.568,21.453 176.17,21.595 175.756,21.701C175.341,21.806 174.883,21.858 174.381,21.858Z" style="fill:rgb(35,31,32);fill-rule:nonzero;"/>
        <path d="M186.278,21.657L183.851,21.657L183.851,17.911C183.851,17.606 183.835,17.302 183.804,17C183.772,16.697 183.718,16.474 183.642,16.331C183.553,16.165 183.421,16.043 183.249,15.967C183.076,15.891 182.835,15.853 182.526,15.853C182.306,15.853 182.083,15.889 181.857,15.96C181.63,16.032 181.385,16.146 181.121,16.304L181.121,21.657L178.692,21.657L178.692,11.192L181.121,11.192L181.121,14.938C181.55,14.602 181.963,14.344 182.359,14.165C182.756,13.986 183.196,13.896 183.679,13.896C184.494,13.896 185.131,14.134 185.59,14.609C186.049,15.084 186.278,15.795 186.278,16.741L186.278,21.657Z" style="fill:rgb(35,31,32);fill-rule:nonzero;"/>
        <path d="M193.451,16.909C193.438,16.402 193.312,16.021 193.074,15.766C192.837,15.51 192.467,15.382 191.965,15.382C191.499,15.382 191.115,15.503 190.815,15.745C190.514,15.987 190.346,16.375 190.311,16.909L193.451,16.909ZM195.858,18.328L190.317,18.328C190.353,18.919 190.578,19.373 190.993,19.686C191.408,20 192.019,20.157 192.826,20.157C193.337,20.157 193.832,20.065 194.312,19.881C194.792,19.698 195.17,19.5 195.448,19.29L195.717,19.29L195.717,21.233C195.17,21.453 194.655,21.612 194.17,21.71C193.687,21.809 193.15,21.858 192.563,21.858C191.048,21.858 189.887,21.518 189.08,20.836C188.272,20.155 187.869,19.184 187.869,17.924C187.869,16.678 188.251,15.69 189.016,14.962C189.78,14.233 190.828,13.869 192.16,13.869C193.388,13.869 194.312,14.18 194.931,14.8C195.549,15.421 195.858,16.315 195.858,17.48L195.858,18.328Z" style="fill:rgb(35,31,32);fill-rule:nonzero;"/>
        <path d="M211.178,18.032C211.178,19.27 210.802,20.218 210.049,20.876C209.295,21.536 208.186,21.865 206.72,21.865C205.253,21.865 204.145,21.536 203.394,20.876C202.643,20.218 202.268,19.271 202.268,18.039L202.268,11.643L204.864,11.643L204.864,17.891C204.864,18.585 205.009,19.104 205.301,19.444C205.592,19.785 206.065,19.955 206.72,19.955C207.366,19.955 207.837,19.791 208.135,19.464C208.434,19.137 208.583,18.613 208.583,17.891L208.583,11.643L211.178,11.643L211.178,18.032Z" style="fill:rgb(35,31,32);fill-rule:nonzero;"/>
        <path d="M220.921,21.657L218.494,21.657L218.494,17.911C218.494,17.606 218.478,17.302 218.446,17C218.415,16.697 218.361,16.474 218.285,16.331C218.195,16.165 218.064,16.043 217.891,15.967C217.719,15.891 217.478,15.853 217.168,15.853C216.949,15.853 216.726,15.889 216.5,15.96C216.273,16.032 216.028,16.146 215.763,16.304L215.763,21.657L213.335,21.657L213.335,14.104L215.763,14.104L215.763,14.938C216.193,14.602 216.606,14.344 217.002,14.165C217.398,13.986 217.838,13.896 218.322,13.896C219.137,13.896 219.774,14.134 220.233,14.609C220.692,15.084 220.921,15.795 220.921,16.741L220.921,21.657Z" style="fill:rgb(35,31,32);fill-rule:nonzero;"/>
        <path d="M225.412,21.657L222.984,21.657L222.984,14.104L225.412,14.104L225.412,21.657ZM225.479,13.028L222.917,13.028L222.917,11.192L225.479,11.192L225.479,13.028Z" style="fill:rgb(35,31,32);fill-rule:nonzero;"/>
        <path d="M232.336,19.72C232.493,19.527 232.611,19.295 232.689,19.024C232.768,18.752 232.807,18.377 232.807,17.897C232.807,17.454 232.766,17.082 232.686,16.781C232.605,16.48 232.493,16.241 232.349,16.062C232.207,15.877 232.034,15.748 231.832,15.671C231.63,15.595 231.413,15.557 231.179,15.557C230.946,15.557 230.739,15.588 230.557,15.651C230.375,15.714 230.202,15.839 230.037,16.028C229.888,16.203 229.771,16.442 229.683,16.748C229.595,17.052 229.552,17.436 229.552,17.897C229.552,18.31 229.59,18.667 229.667,18.97C229.743,19.272 229.855,19.516 230.002,19.7C230.146,19.875 230.318,20.002 230.517,20.083C230.716,20.164 230.944,20.204 231.2,20.204C231.419,20.204 231.628,20.167 231.829,20.093C232.028,20.019 232.197,19.895 232.336,19.72ZM235.315,17.884C235.315,19.126 234.954,20.104 234.229,20.819C233.505,21.535 232.489,21.892 231.179,21.892C229.871,21.892 228.854,21.535 228.129,20.819C227.406,20.104 227.043,19.126 227.043,17.884C227.043,16.633 227.408,15.651 228.136,14.938C228.865,14.226 229.879,13.869 231.179,13.869C232.498,13.869 233.516,14.228 234.236,14.945C234.956,15.663 235.315,16.642 235.315,17.884Z" style="fill:rgb(35,31,32);fill-rule:nonzero;"/>
        <path d="M244.565,21.657L242.137,21.657L242.137,17.911C242.137,17.606 242.122,17.302 242.089,17C242.058,16.697 242.004,16.474 241.928,16.331C241.838,16.165 241.708,16.043 241.535,15.967C241.363,15.891 241.122,15.853 240.812,15.853C240.592,15.853 240.37,15.889 240.143,15.96C239.917,16.032 239.671,16.146 239.407,16.304L239.407,21.657L236.979,21.657L236.979,14.104L239.407,14.104L239.407,14.938C239.836,14.602 240.25,14.344 240.646,14.165C241.042,13.986 241.482,13.896 241.965,13.896C242.781,13.896 243.417,14.134 243.876,14.609C244.335,15.084 244.565,15.795 244.565,16.741L244.565,21.657Z" style="fill:rgb(35,31,32);fill-rule:nonzero;"/>
        <path d="M109.151,39.996L103.882,39.996L103.882,31.998L109.151,31.998L109.151,32.943L104.945,32.943L104.945,35.135L109.151,35.135L109.151,36.08L104.945,36.08L104.945,39.05L109.151,39.05L109.151,39.996Z" style="fill:rgb(35,31,32);fill-rule:nonzero;"/>
        <path d="M115.653,39.996L114.644,39.996L114.644,39.33C114.303,39.598 113.978,39.804 113.666,39.947C113.354,40.09 113.011,40.162 112.635,40.162C112.004,40.162 111.514,39.97 111.163,39.584C110.812,39.2 110.637,38.635 110.637,37.89L110.637,33.996L111.646,33.996L111.646,37.412C111.646,37.716 111.661,37.977 111.689,38.194C111.718,38.41 111.779,38.596 111.872,38.75C111.969,38.907 112.094,39.021 112.248,39.093C112.402,39.165 112.626,39.201 112.919,39.201C113.181,39.201 113.466,39.133 113.776,38.997C114.086,38.86 114.375,38.687 114.644,38.476L114.644,33.996L115.653,33.996L115.653,39.996Z" style="fill:rgb(35,31,32);fill-rule:nonzero;"/>
        <path d="M121.273,35.097L121.22,35.097C121.069,35.062 120.923,35.036 120.782,35.019C120.641,35.003 120.473,34.995 120.28,34.995C119.968,34.995 119.667,35.064 119.377,35.202C119.087,35.34 118.808,35.518 118.54,35.736L118.54,39.996L117.53,39.996L117.53,33.996L118.54,33.996L118.54,34.882C118.94,34.56 119.294,34.332 119.601,34.198C119.906,34.063 120.219,33.996 120.538,33.996C120.713,33.996 120.84,34 120.919,34.009C120.998,34.019 121.116,34.036 121.273,34.061L121.273,35.097Z" style="fill:rgb(35,31,32);fill-rule:nonzero;"/>
        <path d="M126.463,36.999C126.463,36.222 126.311,35.644 126.007,35.266C125.703,34.889 125.28,34.7 124.739,34.7C124.191,34.7 123.766,34.889 123.464,35.266C123.161,35.644 123.01,36.222 123.01,36.999C123.01,37.75 123.162,38.321 123.466,38.709C123.771,39.098 124.195,39.292 124.739,39.292C125.276,39.292 125.698,39.1 126.004,38.714C126.311,38.33 126.463,37.758 126.463,36.999ZM127.505,36.999C127.505,37.976 127.255,38.748 126.753,39.313C126.252,39.879 125.581,40.162 124.739,40.162C123.891,40.162 123.217,39.879 122.717,39.313C122.218,38.748 121.968,37.976 121.968,36.999C121.968,36.021 122.218,35.249 122.717,34.681C123.217,34.113 123.891,33.83 124.739,33.83C125.581,33.83 126.252,34.113 126.753,34.681C127.255,35.249 127.505,36.021 127.505,36.999Z" style="fill:rgb(35,31,32);fill-rule:nonzero;"/>
        <path d="M133.283,36.95C133.283,36.227 133.16,35.686 132.913,35.328C132.666,34.97 132.286,34.791 131.774,34.791C131.484,34.791 131.192,34.854 130.897,34.979C130.604,35.104 130.324,35.269 130.054,35.473L130.054,38.873C130.341,39.002 130.588,39.09 130.794,39.136C131,39.183 131.233,39.206 131.495,39.206C132.057,39.206 132.496,39.016 132.811,38.637C133.125,38.257 133.283,37.695 133.283,36.95ZM134.325,36.923C134.325,37.41 134.255,37.855 134.116,38.258C133.976,38.661 133.779,39.002 133.525,39.281C133.289,39.546 133.01,39.751 132.689,39.896C132.369,40.041 132.03,40.114 131.672,40.114C131.36,40.114 131.078,40.08 130.826,40.012C130.573,39.944 130.315,39.838 130.054,39.695L130.054,42.208L129.045,42.208L129.045,33.996L130.054,33.996L130.054,34.625C130.324,34.399 130.625,34.21 130.96,34.058C131.295,33.906 131.652,33.83 132.032,33.83C132.755,33.83 133.318,34.103 133.721,34.649C134.124,35.195 134.325,35.953 134.325,36.923Z" style="fill:rgb(35,31,32);fill-rule:nonzero;"/>
        <path d="M139.879,32.992L138.81,32.992L138.81,31.944L139.879,31.944L139.879,32.992ZM137.661,32.992L136.592,32.992L136.592,31.944L137.661,31.944L137.661,32.992ZM139.557,38.519L139.557,36.848C139.249,36.866 138.886,36.893 138.469,36.929C138.052,36.964 137.722,37.017 137.478,37.084C137.188,37.167 136.954,37.295 136.774,37.468C136.595,37.642 136.506,37.881 136.506,38.186C136.506,38.529 136.61,38.788 136.817,38.961C137.025,39.135 137.342,39.222 137.768,39.222C138.123,39.222 138.447,39.153 138.74,39.015C139.034,38.877 139.306,38.712 139.557,38.519ZM140.561,39.996L139.557,39.996L139.557,39.356C139.467,39.417 139.346,39.502 139.194,39.612C139.042,39.721 138.894,39.808 138.751,39.872C138.583,39.955 138.389,40.023 138.171,40.079C137.953,40.134 137.696,40.162 137.403,40.162C136.862,40.162 136.404,39.983 136.028,39.625C135.652,39.267 135.464,38.811 135.464,38.255C135.464,37.801 135.562,37.433 135.757,37.152C135.952,36.871 136.23,36.649 136.592,36.488C136.957,36.327 137.396,36.218 137.908,36.161C138.42,36.104 138.969,36.061 139.557,36.032L139.557,35.876C139.557,35.647 139.517,35.457 139.436,35.307C139.355,35.156 139.24,35.038 139.089,34.952C138.946,34.87 138.774,34.814 138.574,34.786C138.373,34.757 138.164,34.743 137.945,34.743C137.68,34.743 137.385,34.778 137.059,34.847C136.733,34.917 136.396,35.019 136.049,35.151L135.996,35.151L135.996,34.125C136.192,34.071 136.477,34.012 136.85,33.948C137.222,33.883 137.589,33.851 137.951,33.851C138.373,33.851 138.741,33.886 139.055,33.956C139.368,34.026 139.639,34.145 139.868,34.313C140.094,34.478 140.266,34.691 140.384,34.952C140.502,35.213 140.561,35.538 140.561,35.924L140.561,39.996Z" style="fill:rgb(35,31,32);fill-rule:nonzero;"/>
        <path d="M143.412,39.996L142.402,39.996L142.402,33.996L143.412,33.996L143.412,39.996ZM143.476,32.992L142.337,32.992L142.337,31.944L143.476,31.944L143.476,32.992Z" style="fill:rgb(35,31,32);fill-rule:nonzero;"/>
        <path d="M149.686,38.266C149.686,38.814 149.459,39.263 149.007,39.614C148.554,39.965 147.935,40.141 147.151,40.141C146.707,40.141 146.3,40.088 145.929,39.982C145.559,39.876 145.248,39.761 144.997,39.636L144.997,38.502L145.051,38.502C145.37,38.742 145.724,38.933 146.114,39.075C146.504,39.216 146.879,39.287 147.237,39.287C147.681,39.287 148.028,39.215 148.279,39.072C148.529,38.929 148.655,38.703 148.655,38.395C148.655,38.159 148.587,37.979 148.451,37.858C148.314,37.736 148.053,37.632 147.667,37.546C147.523,37.514 147.336,37.477 147.105,37.434C146.874,37.391 146.664,37.344 146.474,37.294C145.948,37.154 145.574,36.949 145.354,36.679C145.134,36.409 145.024,36.077 145.024,35.683C145.024,35.436 145.075,35.203 145.177,34.984C145.279,34.766 145.434,34.571 145.642,34.399C145.842,34.23 146.097,34.097 146.407,33.999C146.717,33.9 147.063,33.851 147.446,33.851C147.804,33.851 148.167,33.895 148.534,33.983C148.901,34.07 149.206,34.177 149.45,34.302L149.45,35.382L149.396,35.382C149.138,35.192 148.825,35.032 148.456,34.901C148.087,34.771 147.726,34.705 147.371,34.705C147.002,34.705 146.691,34.776 146.437,34.917C146.182,35.059 146.055,35.269 146.055,35.548C146.055,35.795 146.132,35.981 146.286,36.107C146.437,36.232 146.68,36.334 147.017,36.413C147.203,36.456 147.411,36.499 147.643,36.542C147.873,36.585 148.066,36.625 148.22,36.66C148.689,36.768 149.05,36.952 149.305,37.213C149.559,37.479 149.686,37.829 149.686,38.266Z" style="fill:rgb(35,31,32);fill-rule:nonzero;"/>
        <path d="M155.637,39.62C155.3,39.781 154.98,39.906 154.678,39.996C154.375,40.085 154.054,40.13 153.714,40.13C153.281,40.13 152.883,40.066 152.521,39.939C152.16,39.812 151.85,39.62 151.592,39.362C151.331,39.104 151.128,38.778 150.985,38.384C150.842,37.99 150.771,37.53 150.771,37.004C150.771,36.023 151.04,35.253 151.579,34.694C152.118,34.136 152.83,33.856 153.714,33.856C154.058,33.856 154.395,33.905 154.726,34.001C155.058,34.098 155.361,34.216 155.637,34.356L155.637,35.479L155.583,35.479C155.275,35.239 154.958,35.054 154.629,34.925C154.302,34.796 153.982,34.732 153.671,34.732C153.098,34.732 152.646,34.924 152.315,35.309C151.983,35.694 151.818,36.259 151.818,37.004C151.818,37.727 151.98,38.283 152.304,38.671C152.628,39.06 153.083,39.254 153.671,39.254C153.875,39.254 154.083,39.228 154.294,39.174C154.505,39.12 154.695,39.05 154.863,38.964C155.01,38.889 155.148,38.81 155.277,38.725C155.406,38.641 155.508,38.569 155.583,38.508L155.637,38.508L155.637,39.62Z" style="fill:rgb(35,31,32);fill-rule:nonzero;"/>
        <path d="M162.085,39.996L161.075,39.996L161.075,36.58C161.075,36.304 161.059,36.045 161.027,35.803C160.995,35.562 160.936,35.373 160.85,35.237C160.76,35.086 160.631,34.975 160.463,34.901C160.294,34.828 160.076,34.791 159.808,34.791C159.532,34.791 159.244,34.859 158.943,34.995C158.642,35.131 158.354,35.305 158.078,35.516L158.078,39.996L157.068,39.996L157.068,31.638L158.078,31.638L158.078,34.662C158.393,34.401 158.719,34.197 159.056,34.05C159.392,33.903 159.738,33.83 160.092,33.83C160.74,33.83 161.234,34.025 161.575,34.415C161.915,34.805 162.085,35.368 162.085,36.102L162.085,39.996Z" style="fill:rgb(35,31,32);fill-rule:nonzero;"/>
        <path d="M168.033,36.327C168.03,35.797 167.896,35.387 167.633,35.097C167.37,34.807 166.97,34.662 166.433,34.662C165.892,34.662 165.461,34.821 165.141,35.14C164.82,35.459 164.639,35.854 164.596,36.327L168.033,36.327ZM169.016,37.101L164.596,37.101C164.596,37.469 164.651,37.791 164.762,38.065C164.873,38.338 165.025,38.563 165.219,38.739C165.405,38.911 165.626,39.04 165.882,39.125C166.138,39.211 166.42,39.254 166.728,39.254C167.136,39.254 167.547,39.173 167.96,39.01C168.375,38.847 168.669,38.687 168.844,38.529L168.898,38.529L168.898,39.63C168.558,39.773 168.21,39.894 167.856,39.99C167.501,40.087 167.129,40.135 166.739,40.135C165.743,40.135 164.966,39.866 164.408,39.327C163.849,38.788 163.57,38.022 163.57,37.031C163.57,36.05 163.837,35.271 164.373,34.694C164.908,34.118 165.613,33.83 166.486,33.83C167.295,33.83 167.919,34.066 168.358,34.539C168.797,35.011 169.016,35.683 169.016,36.553L169.016,37.101Z" style="fill:rgb(35,31,32);fill-rule:nonzero;"/>
        <path d="M174.324,35.097L174.27,35.097C174.12,35.062 173.974,35.036 173.833,35.019C173.691,35.003 173.523,34.995 173.33,34.995C173.019,34.995 172.718,35.064 172.428,35.202C172.138,35.34 171.858,35.518 171.59,35.736L171.59,39.996L170.58,39.996L170.58,33.996L171.59,33.996L171.59,34.882C171.991,34.56 172.344,34.332 172.651,34.198C172.957,34.063 173.269,33.996 173.588,33.996C173.763,33.996 173.891,34 173.969,34.009C174.048,34.019 174.166,34.036 174.324,34.061L174.324,35.097Z" style="fill:rgb(35,31,32);fill-rule:nonzero;"/>
        <path d="M184.33,32.943L180.286,32.943L180.286,35.199L183.761,35.199L183.761,36.145L180.286,36.145L180.286,39.996L179.222,39.996L179.222,31.998L184.33,31.998L184.33,32.943Z" style="fill:rgb(35,31,32);fill-rule:nonzero;"/>
        <path d="M189.514,36.999C189.514,36.222 189.361,35.644 189.057,35.266C188.753,34.889 188.33,34.7 187.79,34.7C187.242,34.7 186.816,34.889 186.514,35.266C186.211,35.644 186.06,36.222 186.06,36.999C186.06,37.75 186.212,38.321 186.517,38.709C186.821,39.098 187.245,39.292 187.79,39.292C188.327,39.292 188.749,39.1 189.054,38.714C189.361,38.33 189.514,37.758 189.514,36.999ZM190.556,36.999C190.556,37.976 190.305,38.748 189.804,39.313C189.302,39.879 188.631,40.162 187.79,40.162C186.941,40.162 186.267,39.879 185.767,39.313C185.268,38.748 185.018,37.976 185.018,36.999C185.018,36.021 185.268,35.249 185.767,34.681C186.267,34.113 186.941,33.83 187.79,33.83C188.631,33.83 189.302,34.113 189.804,34.681C190.305,35.249 190.556,36.021 190.556,36.999Z" style="fill:rgb(35,31,32);fill-rule:nonzero;"/>
        <path d="M197.114,39.996L196.104,39.996L196.104,36.58C196.104,36.304 196.088,36.045 196.056,35.803C196.024,35.562 195.965,35.373 195.879,35.237C195.79,35.086 195.661,34.975 195.492,34.901C195.324,34.828 195.105,34.791 194.837,34.791C194.561,34.791 194.273,34.859 193.972,34.995C193.671,35.131 193.383,35.305 193.107,35.516L193.107,39.996L192.098,39.996L192.098,33.996L193.107,33.996L193.107,34.662C193.422,34.401 193.749,34.197 194.085,34.05C194.421,33.903 194.767,33.83 195.122,33.83C195.77,33.83 196.264,34.025 196.604,34.415C196.944,34.805 197.114,35.368 197.114,36.102L197.114,39.996Z" style="fill:rgb(35,31,32);fill-rule:nonzero;"/>
        <path d="M202.893,38.519L202.893,35.076C202.622,34.954 202.377,34.87 202.163,34.823C201.948,34.777 201.713,34.753 201.459,34.753C200.895,34.753 200.454,34.95 200.139,35.344C199.823,35.738 199.667,36.297 199.667,37.02C199.667,37.732 199.788,38.274 200.032,38.645C200.274,39.015 200.665,39.201 201.202,39.201C201.489,39.201 201.778,39.137 202.073,39.01C202.366,38.883 202.639,38.719 202.893,38.519ZM203.903,39.996L202.893,39.996L202.893,39.367C202.604,39.618 202.301,39.813 201.987,39.953C201.67,40.092 201.329,40.162 200.959,40.162C200.245,40.162 199.676,39.886 199.254,39.335C198.834,38.784 198.624,38.019 198.624,37.041C198.624,36.533 198.696,36.08 198.842,35.683C198.987,35.285 199.182,34.947 199.43,34.667C199.672,34.396 199.958,34.187 200.282,34.044C200.606,33.901 200.94,33.83 201.288,33.83C201.604,33.83 201.883,33.863 202.125,33.929C202.37,33.995 202.625,34.098 202.893,34.238L202.893,31.638L203.903,31.638L203.903,39.996Z" style="fill:rgb(35,31,32);fill-rule:nonzero;"/>
        <path d="M210.186,38.266C210.186,38.814 209.961,39.263 209.508,39.614C209.055,39.965 208.436,40.141 207.651,40.141C207.208,40.141 206.801,40.088 206.43,39.982C206.059,39.876 205.749,39.761 205.499,39.636L205.499,38.502L205.551,38.502C205.87,38.742 206.225,38.933 206.616,39.075C207.006,39.216 207.379,39.287 207.737,39.287C208.182,39.287 208.53,39.215 208.78,39.072C209.03,38.929 209.155,38.703 209.155,38.395C209.155,38.159 209.088,37.979 208.952,37.858C208.815,37.736 208.553,37.632 208.167,37.546C208.024,37.514 207.836,37.477 207.606,37.434C207.375,37.391 207.165,37.344 206.975,37.294C206.448,37.154 206.075,36.949 205.856,36.679C205.635,36.409 205.524,36.077 205.524,35.683C205.524,35.436 205.577,35.203 205.678,34.984C205.78,34.766 205.934,34.571 206.143,34.399C206.342,34.23 206.598,34.097 206.909,33.999C207.217,33.9 207.565,33.851 207.948,33.851C208.305,33.851 208.668,33.895 209.036,33.983C209.403,34.07 209.708,34.177 209.95,34.302L209.95,35.382L209.897,35.382C209.639,35.192 209.327,35.032 208.958,34.901C208.588,34.771 208.227,34.705 207.872,34.705C207.502,34.705 207.192,34.776 206.938,34.917C206.684,35.059 206.555,35.269 206.555,35.548C206.555,35.795 206.633,35.981 206.788,36.107C206.938,36.232 207.18,36.334 207.518,36.413C207.704,36.456 207.913,36.499 208.143,36.542C208.374,36.585 208.567,36.625 208.721,36.66C209.19,36.768 209.551,36.952 209.805,37.213C210.059,37.479 210.186,37.829 210.186,38.266Z" style="fill:rgb(35,31,32);fill-rule:nonzero;"/>
        <path d="M218.727,32.616L218.672,32.616C218.561,32.583 218.417,32.55 218.237,32.516C218.059,32.482 217.901,32.465 217.764,32.465C217.333,32.465 217.018,32.561 216.823,32.752C216.627,32.944 216.53,33.291 216.53,33.792L216.53,33.996L218.35,33.996L218.35,34.845L216.561,34.845L216.561,39.996L215.551,39.996L215.551,34.845L214.87,34.845L214.87,33.996L215.551,33.996L215.551,33.797C215.551,33.085 215.729,32.538 216.084,32.157C216.438,31.775 216.95,31.584 217.62,31.584C217.846,31.584 218.049,31.595 218.229,31.617C218.411,31.638 218.577,31.663 218.727,31.692L218.727,32.616Z" style="fill:rgb(35,31,32);fill-rule:nonzero;"/>
        <path d="M223.627,32.992L222.559,32.992L222.559,31.944L223.627,31.944L223.627,32.992ZM221.411,32.992L220.34,32.992L220.34,31.944L221.411,31.944L221.411,32.992ZM224.465,39.996L223.456,39.996L223.456,39.33C223.116,39.598 222.79,39.804 222.479,39.947C222.167,40.09 221.823,40.162 221.448,40.162C220.817,40.162 220.327,39.97 219.975,39.584C219.625,39.2 219.45,38.635 219.45,37.89L219.45,33.996L220.459,33.996L220.459,37.412C220.459,37.716 220.473,37.977 220.502,38.194C220.532,38.41 220.592,38.596 220.684,38.75C220.782,38.907 220.907,39.021 221.061,39.093C221.215,39.165 221.438,39.201 221.733,39.201C221.995,39.201 222.28,39.133 222.588,38.997C222.899,38.86 223.188,38.687 223.456,38.476L223.456,33.996L224.465,33.996L224.465,39.996Z" style="fill:rgb(35,31,32);fill-rule:nonzero;"/>
        <path d="M230.086,35.097L230.032,35.097C229.881,35.062 229.737,35.036 229.594,35.019C229.454,35.003 229.286,34.995 229.092,34.995C228.78,34.995 228.479,35.064 228.19,35.202C227.899,35.34 227.62,35.518 227.352,35.736L227.352,39.996L226.342,39.996L226.342,33.996L227.352,33.996L227.352,34.882C227.752,34.56 228.106,34.332 228.413,34.198C228.719,34.063 229.032,33.996 229.35,33.996C229.526,33.996 229.653,34 229.731,34.009C229.811,34.019 229.928,34.036 230.086,34.061L230.086,35.097Z" style="fill:rgb(35,31,32);fill-rule:nonzero;"/>
        <path d="M107.545,48.297L107.491,48.297C107.341,48.262 107.195,48.236 107.054,48.219C106.912,48.204 106.745,48.195 106.551,48.195C106.24,48.195 105.939,48.264 105.649,48.402C105.359,48.54 105.08,48.718 104.811,48.937L104.811,53.196L103.801,53.196L103.801,47.196L104.811,47.196L104.811,48.083C105.212,47.76 105.565,47.532 105.872,47.398C106.178,47.263 106.49,47.196 106.809,47.196C106.984,47.196 107.112,47.201 107.19,47.209C107.269,47.219 107.387,47.236 107.545,47.261L107.545,48.297Z" style="fill:rgb(35,31,32);fill-rule:nonzero;"/>
        <path d="M112.687,49.527C112.683,48.998 112.549,48.587 112.287,48.297C112.023,48.007 111.623,47.862 111.086,47.862C110.545,47.862 110.115,48.021 109.794,48.34C109.474,48.659 109.292,49.055 109.249,49.527L112.687,49.527ZM113.669,50.301L109.249,50.301C109.249,50.669 109.305,50.991 109.416,51.265C109.526,51.539 109.679,51.764 109.872,51.939C110.058,52.111 110.279,52.24 110.536,52.326C110.792,52.412 111.073,52.455 111.381,52.455C111.79,52.455 112.201,52.373 112.614,52.21C113.028,52.047 113.322,51.887 113.498,51.729L113.551,51.729L113.551,52.831C113.211,52.974 112.864,53.094 112.509,53.19C112.155,53.287 111.782,53.335 111.392,53.335C110.396,53.335 109.62,53.066 109.061,52.527C108.502,51.988 108.223,51.223 108.223,50.231C108.223,49.25 108.491,48.471 109.026,47.895C109.562,47.318 110.266,47.03 111.14,47.03C111.949,47.03 112.573,47.266 113.011,47.739C113.45,48.211 113.669,48.883 113.669,49.753L113.669,50.301Z" style="fill:rgb(35,31,32);fill-rule:nonzero;"/>
        <path d="M119.135,51.547L119.135,48.276C118.866,48.154 118.617,48.067 118.385,48.015C118.155,47.963 117.924,47.937 117.695,47.937C117.14,47.937 116.704,48.124 116.385,48.496C116.066,48.869 115.907,49.409 115.907,50.118C115.907,50.791 116.025,51.302 116.261,51.649C116.498,51.996 116.89,52.17 117.438,52.17C117.731,52.17 118.026,52.114 118.321,52C118.617,51.888 118.888,51.737 119.135,51.547ZM120.145,52.514C120.145,53.531 119.914,54.277 119.452,54.753C118.99,55.229 118.279,55.468 117.319,55.468C117,55.468 116.69,55.445 116.387,55.401C116.085,55.356 115.787,55.292 115.493,55.21L115.493,54.179L115.547,54.179C115.711,54.243 115.973,54.323 116.331,54.417C116.689,54.513 117.047,54.56 117.405,54.56C117.749,54.56 118.034,54.519 118.259,54.437C118.485,54.354 118.66,54.24 118.786,54.093C118.911,53.953 119,53.785 119.054,53.588C119.108,53.391 119.135,53.171 119.135,52.927L119.135,52.379C118.831,52.623 118.54,52.805 118.262,52.924C117.984,53.044 117.631,53.104 117.201,53.104C116.485,53.104 115.917,52.846 115.496,52.329C115.075,51.811 114.865,51.082 114.865,50.14C114.865,49.624 114.937,49.179 115.083,48.805C115.227,48.431 115.425,48.107 115.676,47.835C115.909,47.581 116.191,47.383 116.524,47.242C116.857,47.101 117.188,47.03 117.518,47.03C117.865,47.03 118.156,47.065 118.391,47.134C118.625,47.205 118.874,47.311 119.135,47.454L119.199,47.196L120.145,47.196L120.145,52.514Z" style="fill:rgb(35,31,32);fill-rule:nonzero;"/>
        <path d="M123.04,53.196L122.03,53.196L122.03,47.196L123.04,47.196L123.04,53.196ZM123.104,46.192L121.966,46.192L121.966,45.145L123.104,45.145L123.104,46.192Z" style="fill:rgb(35,31,32);fill-rule:nonzero;"/>
        <path d="M129.058,50.199C129.058,49.422 128.905,48.844 128.601,48.466C128.297,48.089 127.874,47.9 127.333,47.9C126.786,47.9 126.36,48.089 126.058,48.466C125.755,48.844 125.604,49.422 125.604,50.199C125.604,50.951 125.756,51.521 126.061,51.91C126.365,52.298 126.789,52.492 127.333,52.492C127.871,52.492 128.292,52.3 128.598,51.915C128.905,51.53 129.058,50.958 129.058,50.199ZM130.1,50.199C130.1,51.176 129.849,51.948 129.348,52.514C128.845,53.08 128.175,53.362 127.333,53.362C126.485,53.362 125.811,53.08 125.311,52.514C124.812,51.948 124.562,51.176 124.562,50.199C124.562,49.221 124.812,48.449 125.311,47.881C125.811,47.313 126.485,47.03 127.333,47.03C128.175,47.03 128.845,47.313 129.348,47.881C129.849,48.449 130.1,49.221 130.1,50.199Z" style="fill:rgb(35,31,32);fill-rule:nonzero;"/>
        <path d="M136.656,53.196L135.646,53.196L135.646,49.78C135.646,49.504 135.63,49.246 135.598,49.003C135.566,48.762 135.507,48.573 135.421,48.437C135.332,48.287 135.203,48.175 135.034,48.101C134.866,48.028 134.647,47.991 134.379,47.991C134.103,47.991 133.815,48.059 133.514,48.195C133.213,48.332 132.925,48.505 132.649,48.716L132.649,53.196L131.64,53.196L131.64,47.196L132.649,47.196L132.649,47.862C132.964,47.601 133.291,47.397 133.627,47.25C133.963,47.103 134.309,47.03 134.664,47.03C135.312,47.03 135.806,47.225 136.146,47.615C136.486,48.005 136.656,48.568 136.656,49.302L136.656,53.196Z" style="fill:rgb(35,31,32);fill-rule:nonzero;"/>
        <path d="M142.168,51.719L142.168,50.048C141.86,50.066 141.498,50.093 141.08,50.129C140.663,50.165 140.333,50.217 140.089,50.285C139.799,50.367 139.565,50.495 139.386,50.668C139.207,50.842 139.117,51.082 139.117,51.386C139.117,51.729 139.221,51.988 139.429,52.162C139.636,52.335 139.953,52.422 140.379,52.422C140.734,52.422 141.058,52.354 141.352,52.215C141.645,52.078 141.917,51.912 142.168,51.719ZM143.172,53.196L142.168,53.196L142.168,52.557C142.079,52.618 141.958,52.703 141.806,52.812C141.653,52.921 141.505,53.008 141.362,53.072C141.194,53.155 141,53.224 140.782,53.279C140.564,53.334 140.308,53.362 140.014,53.362C139.474,53.362 139.015,53.183 138.639,52.825C138.263,52.467 138.075,52.011 138.075,51.456C138.075,51.001 138.173,50.633 138.368,50.352C138.563,50.071 138.841,49.85 139.203,49.688C139.568,49.527 140.007,49.418 140.519,49.361C141.031,49.304 141.581,49.261 142.168,49.232L142.168,49.076C142.168,48.847 142.128,48.657 142.047,48.507C141.967,48.356 141.851,48.238 141.701,48.152C141.558,48.07 141.386,48.015 141.185,47.986C140.984,47.957 140.775,47.943 140.557,47.943C140.292,47.943 139.996,47.978 139.67,48.047C139.345,48.118 139.008,48.219 138.661,48.351L138.607,48.351L138.607,47.325C138.804,47.271 139.088,47.212 139.461,47.148C139.833,47.083 140.2,47.051 140.562,47.051C140.984,47.051 141.353,47.086 141.666,47.156C141.979,47.226 142.25,47.345 142.479,47.513C142.705,47.678 142.877,47.891 142.995,48.152C143.113,48.414 143.172,48.738 143.172,49.125L143.172,53.196Z" style="fill:rgb(35,31,32);fill-rule:nonzero;"/>
        <rect x="145.027" y="44.838" width="1.01" height="8.358" style="fill:rgb(35,31,32);fill-rule:nonzero;"/>
        <path d="M152.043,49.527C152.04,48.998 151.906,48.587 151.644,48.297C151.38,48.007 150.98,47.862 150.443,47.862C149.902,47.862 149.472,48.021 149.151,48.34C148.831,48.659 148.649,49.055 148.606,49.527L152.043,49.527ZM153.026,50.301L148.606,50.301C148.606,50.669 148.662,50.991 148.772,51.265C148.883,51.539 149.036,51.764 149.229,51.939C149.415,52.111 149.636,52.24 149.893,52.326C150.148,52.412 150.43,52.455 150.738,52.455C151.146,52.455 151.558,52.373 151.971,52.21C152.385,52.047 152.679,51.887 152.854,51.729L152.908,51.729L152.908,52.831C152.568,52.974 152.221,53.094 151.866,53.19C151.512,53.287 151.139,53.335 150.749,53.335C149.753,53.335 148.977,53.066 148.418,52.527C147.859,51.988 147.58,51.223 147.58,50.231C147.58,49.25 147.848,48.471 148.383,47.895C148.918,47.318 149.623,47.03 150.497,47.03C151.306,47.03 151.93,47.266 152.368,47.739C152.807,48.211 153.026,48.883 153.026,49.753L153.026,50.301Z" style="fill:rgb(35,31,32);fill-rule:nonzero;"/>
        <path d="M163.774,53.196L158.505,53.196L158.505,45.198L163.774,45.198L163.774,46.144L159.568,46.144L159.568,48.335L163.774,48.335L163.774,49.28L159.568,49.28L159.568,52.25L163.774,52.25L163.774,53.196Z" style="fill:rgb(35,31,32);fill-rule:nonzero;"/>
        <path d="M170.38,53.196L169.37,53.196L169.37,49.78C169.37,49.504 169.354,49.246 169.322,49.003C169.29,48.762 169.23,48.573 169.145,48.437C169.055,48.287 168.926,48.175 168.758,48.101C168.589,48.028 168.371,47.991 168.103,47.991C167.827,47.991 167.539,48.059 167.238,48.195C166.937,48.332 166.649,48.505 166.373,48.716L166.373,53.196L165.363,53.196L165.363,47.196L166.373,47.196L166.373,47.862C166.688,47.601 167.014,47.397 167.351,47.25C167.687,47.103 168.033,47.03 168.387,47.03C169.035,47.03 169.529,47.225 169.87,47.615C170.21,48.005 170.38,48.568 170.38,49.302L170.38,53.196Z" style="fill:rgb(35,31,32);fill-rule:nonzero;"/>
        <path d="M175.337,53.142C175.147,53.192 174.941,53.233 174.717,53.266C174.493,53.298 174.293,53.314 174.118,53.314C173.506,53.314 173.041,53.149 172.722,52.82C172.403,52.49 172.244,51.962 172.244,51.235L172.244,48.045L171.562,48.045L171.562,47.196L172.244,47.196L172.244,45.472L173.253,45.472L173.253,47.196L175.337,47.196L175.337,48.045L173.253,48.045L173.253,50.779C173.253,51.094 173.261,51.34 173.275,51.517C173.289,51.695 173.339,51.86 173.425,52.014C173.504,52.157 173.612,52.262 173.75,52.329C173.888,52.395 174.099,52.428 174.381,52.428C174.546,52.428 174.718,52.404 174.897,52.355C175.076,52.307 175.205,52.267 175.284,52.234L175.337,52.234L175.337,53.142Z" style="fill:rgb(35,31,32);fill-rule:nonzero;"/>
        <path d="M184.373,47.196L182.81,53.196L181.875,53.196L180.333,48.571L178.803,53.196L177.874,53.196L176.294,47.196L177.347,47.196L178.448,51.842L179.947,47.196L180.779,47.196L182.315,51.842L183.357,47.196L184.373,47.196Z" style="fill:rgb(35,31,32);fill-rule:nonzero;"/>
        <path d="M186.732,53.196L185.722,53.196L185.722,47.196L186.732,47.196L186.732,53.196ZM186.796,46.192L185.658,46.192L185.658,45.145L186.796,45.145L186.796,46.192Z" style="fill:rgb(35,31,32);fill-rule:nonzero;"/>
        <path d="M193.115,52.82C192.778,52.981 192.458,53.106 192.156,53.196C191.854,53.285 191.532,53.33 191.192,53.33C190.759,53.33 190.361,53.267 190,53.139C189.638,53.012 189.328,52.82 189.07,52.562C188.809,52.304 188.606,51.979 188.463,51.584C188.32,51.19 188.249,50.73 188.249,50.204C188.249,49.223 188.518,48.453 189.057,47.895C189.596,47.336 190.308,47.057 191.192,47.057C191.536,47.057 191.873,47.105 192.204,47.202C192.536,47.298 192.839,47.416 193.115,47.556L193.115,48.679L193.061,48.679C192.753,48.439 192.436,48.254 192.107,48.125C191.78,47.997 191.46,47.932 191.149,47.932C190.576,47.932 190.124,48.125 189.793,48.509C189.461,48.895 189.296,49.459 189.296,50.204C189.296,50.927 189.458,51.483 189.782,51.872C190.106,52.26 190.562,52.455 191.149,52.455C191.353,52.455 191.561,52.428 191.772,52.374C191.983,52.32 192.173,52.25 192.341,52.165C192.488,52.089 192.626,52.01 192.755,51.925C192.884,51.841 192.986,51.769 193.061,51.708L193.115,51.708L193.115,52.82Z" style="fill:rgb(35,31,32);fill-rule:nonzero;"/>
        <path d="M199.971,53.196L198.639,53.196L196.233,50.569L195.578,51.192L195.578,53.196L194.568,53.196L194.568,44.838L195.578,44.838L195.578,50.199L198.495,47.196L199.768,47.196L196.979,49.968L199.971,53.196Z" style="fill:rgb(35,31,32);fill-rule:nonzero;"/>
        <rect x="201.122" y="44.838" width="1.009" height="8.358" style="fill:rgb(35,31,32);fill-rule:nonzero;"/>
        <path d="M209.002,53.196L207.993,53.196L207.993,52.53C207.653,52.798 207.327,53.004 207.016,53.147C206.704,53.291 206.36,53.362 205.985,53.362C205.354,53.362 204.864,53.17 204.512,52.785C204.163,52.4 203.987,51.835 203.987,51.09L203.987,47.196L204.997,47.196L204.997,50.612C204.997,50.916 205.01,51.177 205.04,51.394C205.069,51.61 205.129,51.796 205.221,51.95C205.319,52.107 205.444,52.222 205.598,52.293C205.752,52.365 205.975,52.401 206.27,52.401C206.532,52.401 206.817,52.333 207.125,52.197C207.436,52.061 207.725,51.887 207.993,51.676L207.993,47.196L209.002,47.196L209.002,53.196Z" style="fill:rgb(35,31,32);fill-rule:nonzero;"/>
        <path d="M215.895,53.196L214.885,53.196L214.885,49.78C214.885,49.504 214.87,49.246 214.838,49.003C214.805,48.762 214.747,48.573 214.661,48.437C214.571,48.287 214.442,48.175 214.274,48.101C214.106,48.028 213.887,47.991 213.618,47.991C213.342,47.991 213.055,48.059 212.754,48.195C212.454,48.332 212.165,48.505 211.889,48.716L211.889,53.196L210.879,53.196L210.879,47.196L211.889,47.196L211.889,47.862C212.204,47.601 212.53,47.397 212.866,47.25C213.204,47.103 213.549,47.03 213.903,47.03C214.551,47.03 215.045,47.225 215.385,47.615C215.725,48.005 215.895,48.568 215.895,49.302L215.895,53.196Z" style="fill:rgb(35,31,32);fill-rule:nonzero;"/>
        <path d="M221.657,51.547L221.657,48.276C221.389,48.154 221.139,48.067 220.907,48.015C220.676,47.963 220.446,47.937 220.217,47.937C219.663,47.937 219.225,48.124 218.907,48.496C218.588,48.869 218.428,49.409 218.428,50.118C218.428,50.791 218.547,51.302 218.784,51.649C219.02,51.996 219.413,52.17 219.959,52.17C220.252,52.17 220.547,52.114 220.842,52C221.139,51.888 221.411,51.737 221.657,51.547ZM222.667,52.514C222.667,53.531 222.436,54.277 221.973,54.753C221.512,55.229 220.801,55.468 219.842,55.468C219.522,55.468 219.211,55.445 218.909,55.401C218.606,55.356 218.309,55.292 218.016,55.21L218.016,54.179L218.069,54.179C218.233,54.243 218.495,54.323 218.854,54.417C219.211,54.513 219.569,54.56 219.928,54.56C220.272,54.56 220.555,54.519 220.782,54.437C221.006,54.354 221.182,54.24 221.307,54.093C221.432,53.953 221.522,53.785 221.577,53.588C221.629,53.391 221.657,53.171 221.657,52.927L221.657,52.379C221.352,52.623 221.061,52.805 220.784,52.924C220.506,53.044 220.153,53.104 219.723,53.104C219.006,53.104 218.438,52.846 218.018,52.329C217.596,51.811 217.387,51.082 217.387,50.14C217.387,49.624 217.459,49.179 217.604,48.805C217.749,48.431 217.948,48.107 218.198,47.835C218.43,47.581 218.713,47.383 219.047,47.242C219.379,47.101 219.711,47.03 220.04,47.03C220.387,47.03 220.678,47.065 220.913,47.134C221.147,47.205 221.395,47.311 221.657,47.454L221.721,47.196L222.667,47.196L222.667,52.514Z" style="fill:rgb(35,31,32);fill-rule:nonzero;"/>
    </g>
</svg>
