<svg xmlns="http://www.w3.org/2000/svg" viewBox="0 0 1836 2794" shape-rendering="geometricPrecision" text-rendering="geometricPrecision" image-rendering="optimizeQuality" fill-rule="evenodd" clip-rule="evenodd"><path d="M1117 2794H587c-36 0-68-15-92-38-23-23-38-56-38-92v-425c0-36 15-68 38-92 23-23 56-38 92-38h530c36 0 68 15 92 38 23 23 38 56 38 92v425c0 36-15 68-38 92-23 23-56 38-92 38zM457 1791c1-39 3-76 7-110 4-35 10-69 18-101 9-36 19-68 32-98 13-31 29-59 46-84l1-2 3-4 1-1c16-22 34-43 54-65 21-23 44-45 70-68 24-22 52-45 84-70 30-24 63-48 100-74 2-1 3-3 5-4s4-2 6-4c12-8 23-16 35-25s23-19 33-29 20-21 29-32 16-21 23-32c0-1 1-2 1-2 7-11 13-22 17-33 5-11 9-23 13-37 3-13 6-26 8-41s3-30 3-46-1-31-3-43c-2-13-4-24-8-35-3-9-7-18-11-26s-10-15-16-21l-1-1-2-2c-5-5-9-8-14-12-6-4-12-7-20-10h-2c-9-3-18-6-28-7-11-2-23-2-38-2-11 0-21 1-29 2s-16 3-23 6c-7 2-13 5-19 9s-12 8-18 13c-4 4-8 8-11 13-4 5-7 11-9 18-3 8-6 18-8 29-2 13-3 26-4 39v1c-1 35-16 66-39 89-22 21-51 35-83 37H135c-29 0-56-10-78-26-22-17-38-40-46-67l-1-2c-3-8-5-17-6-25s-2-17-1-25c0-62 4-119 14-173 10-56 25-108 46-158 22-52 49-99 82-142s72-82 116-116c43-33 88-61 136-85s99-44 154-60c53-16 109-27 168-35S839 0 902 0c68 0 134 4 197 13 62 9 122 22 178 40 57 18 111 42 161 69 49 27 94 59 135 95 2 2 5 4 7 6l1 1c42 37 79 78 110 121 32 45 60 93 81 145 22 51 38 105 48 161 11 57 16 116 16 177 0 38-3 77-9 116-6 38-15 76-27 112-12 37-27 73-44 107-18 34-38 68-61 101-1 1-2 3-3 5-21 30-45 59-71 88-25 28-52 54-79 78-29 25-59 48-90 70-29 20-61 39-94 57-12 8-23 16-32 24-10 8-18 16-26 23-1 1-2 2-3 2-5 5-10 11-14 18-4 6-8 12-10 17l-1 2v1c0 1-1 2-1 2-3 7-5 14-8 22-3 9-5 20-7 32-2 13-4 28-5 43s-2 33-2 52c0 36-15 68-38 92-23 23-56 38-92 38H586c-36 0-68-15-92-38l-4-4c-21-23-34-54-34-87v-6-4zm122-97c-4 32-6 65-6 99v8c0 3 1 6 3 8l1 1c2 2 6 4 9 4h533c4 0 7-1 9-4 2-2 4-6 4-9 0-21 1-41 2-60 1-20 4-38 7-55 3-15 6-30 10-45 4-13 8-25 13-37 0-1 1-2 2-4v-2c6-12 13-25 21-37 7-10 15-20 25-30 1-1 2-2 3-4 11-11 23-22 36-33s28-21 43-31c2-1 3-2 5-3 29-15 58-33 86-52s54-39 79-61 48-44 70-69c21-24 42-50 63-78 1-1 1-2 2-2v-2c20-28 37-57 52-86 15-30 28-60 37-90 10-31 18-63 23-95 5-31 7-64 7-98 0-55-5-107-14-156s-23-95-41-138-41-84-69-122c-27-38-59-73-95-104l-1-1c-36-32-76-60-119-84s-90-44-140-60-103-28-159-36-116-12-180-12c-60 0-116 3-168 10-53 7-103 17-151 31-47 14-92 31-135 53-42 21-81 45-117 73-37 28-68 60-95 95s-50 74-67 116c-17 40-30 85-38 133-9 48-13 99-12 152v10c0 1 0 2 1 3l1 2c1 2 1 4 2 6 1 3 2 5 5 7 2 2 5 3 8 3h518c4 0 7-1 9-4 2-2 4-5 4-8 1-21 2-40 5-56 3-18 8-35 14-51 6-15 13-28 21-41 9-13 19-25 30-35s23-19 36-27 26-14 40-19 29-9 45-12 32-4 47-4c19 0 37 1 56 4s36 7 51 13c1 0 2 1 2 1l2 1c14 6 28 13 41 21s24 18 34 28l4 4 3 3c11 12 20 26 29 40 8 15 15 30 21 47s10 36 13 55 4 39 4 60-1 41-4 60c-2 19-6 38-11 57-5 17-11 35-18 53-7 17-16 33-25 49-10 16-21 31-32 46-12 14-24 28-38 42-13 13-28 26-43 38-13 10-28 21-43 31-1 1-3 2-4 3l-3 2c-34 24-66 47-95 70-28 22-54 44-78 65-23 21-44 41-62 61-17 19-32 37-45 54-1 1-2 2-2 3l-3 4c-13 18-24 39-34 61-10 24-19 51-26 79-6 26-11 55-15 87zm8 984h530c4 0 7-1 9-4 2-2 4-6 4-9v-425c0-4-1-7-4-9-2-2-6-4-9-4H587c-4 0-7 1-9 4-2 2-4 6-4 9v425c0 4 1 7 4 9 2 2 6 4 9 4z" fill-rule="nonzero"/></svg>