<svg xmlns="http://www.w3.org/2000/svg"  viewBox="0 0 333333 240819" shape-rendering="geometricPrecision" text-rendering="geometricPrecision" image-rendering="optimizeQuality" fill-rule="evenodd" clip-rule="evenodd"><path d="M57204 229050c2538 3026 2245 7516-781 10053-3026 2538-7516 2246-10054-781C15525 202306-384 161506 6 120218 396 79907 16111 39400 48419 2407c2538-2928 7028-3221 10054-683 2928 2538 3221 7028 683 10053-29965 34260-44606 71643-44899 108539-293 37871 14348 75352 42947 108733zm37286-34650c2635 2928 2343 7418-586 10053-2928 2635-7418 2343-10054-586-23719-26841-35919-55245-35431-84039 488-28013 12884-56124 38164-82965 2733-2831 7223-3026 10053-293 2831 2733 3026 7223 293 10054-22742 24206-33967 48998-34357 73400-390 25182 10542 50365 31819 74473l98-97zm32991-32991c2441 3026 2050 7515-1073 9956-3026 2440-7516 2050-9956-1074-12787-15714-19424-32795-19522-50169-98-16886 6247-33870 19229-49779 2440-3026 6930-3514 9956-1074s3514 6930 1074 9956c-10835 13274-16105 27232-16105 40800 0 13957 5661 28013 16300 41190l97 195zm159483 76913c-2537 3026-7028 3319-10054 781-3026-2537-3319-7027-781-10053 28598-33381 43337-70959 42947-108733-293-36895-14934-74279-44899-108539-2538-2928-2245-7418 683-10053 2928-2538 7418-2245 10054 683 32307 36993 48022 77499 48413 117811 390 41287-15519 82087-46363 118104zm-37383-34552c-2635 2928-7125 3221-10054 586-2928-2635-3221-7125-585-10054 21376-24109 32210-49291 31819-74474-390-24499-11615-49291-34357-73400-2733-2831-2538-7321 293-10054 2830-2733 7320-2538 10053 293 25280 26841 37676 54854 38164 82965 488 28794-11615 57197-35431 84039l98 98zm-32600-33479c-2440 3026-6930 3514-9956 1074-3026-2441-3514-6930-1074-9956 10737-13177 16300-27232 16300-41190 0-13665-5173-27525-16105-40799-2440-3026-2049-7515 1074-9956 3026-2440 7516-2050 9956 1074 12981 15910 19326 32893 19229 49780-98 17374-6735 34357-19522 50169l98-195zm-50441-23620c-2317-7-4633-200-6949-586-3648-1031-7038-2770-9909-5114-663-541-1298-1114-1902-1718-4880-4880-7808-11517-7808-18935s3026-14056 7808-18936c4880-4880 11518-7808 18936-7808s14055 3026 18935 7808c4881 4880 7808 11518 7808 18936 0 4106-927 7972-2565 11434-4695 9918-13425 14952-24354 14919z" fill-rule="nonzero"/></svg>