<?xml version="1.0"?>
<!DOCTYPE svg PUBLIC "-//W3C//DTD SVG 20010904//EN" "http://www.w3.org/TR/2001/REC-SVG-20010904/DTD/svg10.dtd">
<svg xmlns="http://www.w3.org/2000/svg" version="1.0" width="1600px" height="1600px" viewBox="0 0 16000 16000" preserveAspectRatio="xMidYMid meet">
<g id="layer101" fill="#013499" stroke="none">
 <path d="M8605 14840 c-11 -5 -39 -9 -62 -9 -23 -1 -54 -6 -70 -12 -15 -6 -57 -15 -93 -21 -36 -5 -90 -14 -120 -19 -103 -17 -185 -29 -235 -35 -58 -7 -76 -27 -113 -127 -21 -56 -22 -71 -22 -499 0 -434 0 -441 -22 -476 l-21 -35 -51 56 c-28 30 -80 90 -116 132 -117 138 -190 212 -229 230 l-39 17 -114 -38 c-62 -22 -131 -41 -153 -44 -40 -5 -40 -6 -43 -50 -2 -47 -2 -47 103 -180 49 -62 89 -116 107 -146 10 -16 36 -51 58 -79 22 -27 40 -53 40 -57 0 -4 -20 -16 -44 -26 -33 -15 -91 -72 -101 -99 0 -1 -18 2 -40 7 -59 14 -131 -10 -176 -57 -20 -21 -39 -46 -42 -55 -5 -14 -12 -15 -38 -8 -70 20 -179 -32 -208 -100 -15 -35 -18 -38 -48 -33 -78 13 -196 -58 -209 -125 -5 -25 -9 -27 -45 -24 -81 8 -179 -62 -196 -140 -5 -26 -10 -28 -50 -28 -83 0 -165 -62 -179 -135 -5 -31 -10 -35 -35 -35 -86 0 -189 -89 -189 -163 0 -22 -6 -26 -44 -31 -81 -12 -166 -99 -166 -169 0 -21 -7 -26 -45 -36 -79 -20 -154 -109 -155 -183 0 -21 -5 -28 -20 -28 -37 0 -100 -40 -126 -80 -17 -25 -29 -60 -32 -90 -4 -45 -7 -50 -34 -56 -36 -7 -103 -66 -125 -107 -8 -16 -15 -49 -16 -74 0 -41 -3 -45 -36 -59 -47 -20 -78 -50 -103 -99 -11 -22 -42 -62 -67 -90 -26 -27 -55 -64 -65 -81 -10 -17 -32 -39 -49 -49 -46 -27 -105 -84 -137 -131 -25 -35 -36 -42 -77 -49 -73 -12 -239 -10 -318 4 -38 7 -96 17 -127 22 -32 5 -84 13 -115 18 -90 15 -192 30 -260 40 -33 5 -66 12 -73 16 -7 4 -40 12 -73 17 -34 5 -87 13 -117 18 -62 11 -156 26 -245 39 -33 5 -93 22 -134 39 -70 28 -76 33 -92 75 -10 24 -30 64 -46 89 -16 25 -37 73 -48 107 -15 52 -16 63 -4 77 20 25 72 44 117 44 21 0 65 9 97 20 32 11 72 20 90 20 17 0 65 11 105 25 40 14 87 25 104 25 17 1 42 9 54 20 29 24 24 57 -19 124 -37 59 -61 116 -49 116 6 0 26 -26 46 -57 88 -138 111 -168 142 -186 l33 -19 82 76 c45 41 99 91 120 110 l37 34 0 309 c0 296 -6 373 -31 373 -4 0 -24 14 -43 30 l-35 31 -258 -5 c-142 -3 -307 -8 -366 -11 l-108 -6 -34 30 c-19 17 -53 36 -76 42 -28 9 -45 21 -52 38 -11 27 -63 118 -103 183 -13 20 -26 48 -30 63 -4 15 -25 48 -47 73 -21 25 -48 66 -58 90 -11 25 -31 58 -44 74 -14 16 -25 36 -25 43 0 8 -13 29 -29 47 -15 18 -33 49 -40 68 -23 71 -57 104 -173 167 -40 22 -202 32 -642 39 -286 4 -302 4 -365 -17 -76 -25 -116 -57 -132 -108 -6 -20 -29 -65 -51 -100 -22 -34 -46 -81 -54 -103 -7 -22 -25 -53 -38 -69 -24 -28 -46 -86 -46 -119 0 -34 99 -308 129 -357 17 -28 43 -84 56 -124 14 -39 38 -93 54 -118 16 -25 44 -84 62 -131 18 -47 41 -97 51 -112 10 -15 25 -46 34 -70 8 -24 30 -68 48 -98 18 -30 43 -85 55 -121 12 -36 35 -87 51 -113 46 -73 97 -213 103 -287 l6 -65 -47 -22 c-26 -12 -76 -40 -112 -62 -58 -36 -88 -51 -127 -65 -7 -2 -13 -17 -13 -33 0 -44 40 -154 66 -183 22 -23 94 -213 94 -247 0 -10 -7 -12 -22 -8 -27 8 -121 24 -193 32 -48 6 -51 5 -70 -28 -27 -45 -35 -100 -45 -328 -10 -221 -18 -282 -42 -326 -19 -35 -4 -34 -146 -3 -23 5 -55 9 -71 9 -16 0 -47 6 -69 14 l-41 15 -20 -62 c-12 -33 -21 -75 -21 -93 0 -18 -5 -45 -11 -61 -7 -15 -16 -86 -21 -158 -4 -71 -13 -170 -18 -220 -10 -88 -18 -177 -40 -460 -6 -77 -15 -196 -21 -265 -5 -69 -12 -222 -15 -341 l-5 -217 58 -6 c143 -15 153 -18 164 -38 6 -11 8 -37 5 -57 -4 -20 -10 -58 -15 -86 -4 -27 -16 -70 -25 -94 -9 -24 -16 -58 -16 -76 0 -17 -9 -58 -20 -90 -11 -32 -20 -70 -20 -85 0 -16 -15 -47 -35 -73 -29 -38 -41 -46 -77 -50 -100 -13 -166 -26 -207 -41 -24 -9 -55 -16 -70 -16 -19 0 -32 -10 -49 -36 l-23 -35 76 -229 76 -229 47 -36 c26 -19 64 -48 85 -64 21 -17 68 -40 105 -51 37 -12 96 -39 132 -60 36 -21 103 -50 150 -65 47 -15 96 -38 110 -51 35 -33 283 -114 347 -114 41 0 54 5 74 28 14 15 34 49 43 75 10 26 28 60 40 75 12 15 36 56 53 92 17 36 37 73 45 84 14 18 16 18 56 -3 23 -12 48 -34 56 -49 8 -15 26 -38 41 -52 l27 -25 -3 -1705 -3 -1705 26 -55 c35 -77 81 -126 152 -162 179 -91 392 -2 458 192 10 27 14 380 18 1474 l5 1439 40 14 c22 8 66 19 97 24 32 5 84 13 115 18 32 5 78 17 103 26 43 16 89 25 231 44 37 4 81 16 99 25 18 9 48 16 65 16 18 0 52 7 75 15 23 8 56 15 73 15 17 0 38 7 48 16 16 15 25 14 101 -5 192 -47 272 -55 533 -56 221 0 265 3 375 24 69 13 138 26 153 28 l29 6 -6 -69 c-4 -38 -11 -159 -16 -269 -6 -110 -15 -281 -20 -380 -5 -99 -12 -247 -16 -328 l-6 -149 63 -95 c54 -81 65 -93 83 -87 12 4 77 11 146 15 260 18 460 30 600 37 l145 7 35 -39 c37 -41 83 -66 124 -66 19 0 26 -7 31 -32 4 -18 15 -46 23 -63 18 -33 18 -102 0 -147 -9 -24 -5 -35 26 -85 30 -47 52 -67 119 -109 45 -28 120 -75 167 -104 47 -28 101 -67 120 -84 20 -18 73 -54 119 -82 101 -60 140 -109 183 -231 35 -101 36 -110 78 -653 19 -250 27 -325 38 -353 7 -16 12 -73 12 -128 0 -63 4 -99 11 -99 5 0 34 -23 64 -51 52 -50 54 -50 92 -40 21 6 52 11 69 11 16 0 70 13 119 30 49 16 105 30 124 30 20 0 81 16 136 35 55 19 116 35 136 35 20 0 56 7 80 16 90 33 202 42 315 26 64 -8 79 -15 140 -62 38 -29 97 -78 132 -109 66 -59 150 -132 278 -241 41 -36 103 -90 137 -122 36 -32 77 -60 97 -65 25 -7 45 -23 70 -58 19 -27 60 -76 91 -110 56 -59 224 -328 247 -394 6 -18 23 -46 37 -63 14 -16 25 -36 25 -43 0 -8 13 -29 29 -47 15 -18 32 -44 36 -58 4 -14 66 -124 137 -245 136 -230 181 -285 261 -324 48 -23 129 -28 174 -10 15 7 55 16 88 21 33 5 85 14 115 19 30 5 98 13 150 18 137 11 220 54 235 121 3 15 17 38 30 50 17 16 42 75 80 189 55 165 55 166 99 194 53 33 237 97 281 97 17 0 91 20 165 45 74 25 151 45 172 45 55 0 102 23 126 61 11 19 39 52 61 73 22 22 46 56 52 75 26 80 82 217 99 241 22 31 48 94 100 247 21 61 51 131 68 155 16 24 39 75 52 113 12 39 26 75 30 80 4 6 18 42 30 80 38 115 91 175 155 175 16 0 74 -13 130 -29 182 -53 189 -54 237 -30 40 20 95 89 121 154 4 10 20 35 34 53 14 19 35 57 45 86 11 28 30 62 43 76 12 14 28 42 35 63 8 26 26 49 58 72 70 51 99 49 325 -22 124 -40 143 -32 327 132 58 52 103 89 198 163 19 14 25 32 32 87 4 39 16 90 26 115 12 32 20 91 26 205 8 152 17 282 38 550 6 66 13 172 16 235 5 102 8 118 29 140 12 14 28 41 34 61 7 20 20 44 29 52 29 26 105 57 142 57 20 0 96 20 170 45 74 25 146 45 160 45 14 0 72 16 129 35 71 24 120 35 161 35 53 0 63 -3 91 -31 18 -18 60 -45 93 -61 34 -16 84 -46 111 -68 l50 -40 17 23 c36 45 48 85 48 154 0 37 5 84 11 103 16 53 30 135 39 230 7 78 15 131 38 261 5 25 18 59 29 75 41 57 65 72 128 78 83 8 306 25 450 34 131 8 159 18 169 58 4 15 18 42 30 61 l24 34 -20 67 c-11 37 -27 79 -34 94 -8 15 -14 42 -14 61 0 18 -13 73 -30 122 -16 49 -30 105 -30 125 0 33 -32 133 -74 232 -9 21 -16 55 -16 76 0 95 -125 373 -174 388 -12 3 -50 23 -86 44 -36 21 -83 44 -105 50 -22 7 -68 31 -102 52 -34 21 -95 50 -136 64 -63 21 -83 34 -127 80 l-52 55 6 57 c5 54 17 132 36 252 5 30 14 84 19 120 5 36 13 74 16 86 6 20 -16 92 -75 244 -12 30 -32 66 -45 80 -12 14 -28 41 -34 61 -6 20 -22 46 -36 59 -13 12 -27 35 -30 50 -3 15 -42 87 -85 160 -43 73 -82 145 -85 160 -3 15 -17 38 -30 50 -14 13 -30 39 -36 59 -7 20 -25 51 -40 69 -16 18 -29 40 -29 48 0 9 -32 50 -72 90 -62 64 -102 94 -233 172 -11 7 -32 16 -46 21 -22 8 -27 17 -31 55 -6 54 -48 122 -84 138 -19 9 -23 16 -17 32 5 12 7 44 6 71 -1 28 -4 856 -5 1840 l-3 1790 -22 47 c-30 65 -95 133 -157 163 -141 68 -977 99 -1421 51 -888 -95 -1488 -338 -1924 -779 l-83 -85 -28 32 c-15 17 -31 42 -35 56 -4 14 -30 48 -58 77 -60 62 -114 78 -150 45 -12 -11 -38 -25 -58 -31 -20 -7 -45 -21 -55 -33 -11 -11 -46 -39 -79 -61 -33 -22 -73 -52 -90 -67 -16 -15 -41 -31 -55 -35 -14 -4 -36 -18 -51 -31 l-25 -24 -41 30 c-35 26 -41 37 -47 77 -15 122 -24 172 -32 185 -5 7 -12 58 -16 113 -4 55 -12 125 -18 155 -16 79 -28 156 -39 230 -10 74 -16 89 -52 145 -14 22 -50 81 -79 130 -29 50 -78 118 -109 152 -141 155 -172 193 -183 224 -6 19 -40 64 -75 102 -34 37 -63 71 -63 76 0 5 -15 14 -32 20 -18 7 -50 23 -70 36 -21 14 -39 25 -40 24 -2 0 -12 -4 -23 -9z m4600 -861 c350 -22 404 -36 463 -123 l32 -48 2 -2492 c2 -1370 2 -2545 0 -2611 -12 -445 -175 -888 -460 -1249 -83 -105 -264 -282 -372 -362 -648 -485 -1488 -567 -2205 -215 -612 301 -1038 868 -1156 1541 -27 150 -35 409 -20 565 76 757 557 1419 1250 1725 569 250 1219 238 1776 -34 274 -134 502 -313 718 -566 l47 -55 0 1751 0 1752 -157 8 c-749 38 -1391 -49 -1879 -256 -450 -190 -735 -476 -880 -882 -33 -91 -62 -130 -117 -157 -53 -25 -135 -28 -183 -5 -48 23 -101 86 -115 136 -14 52 -4 112 36 214 155 395 414 699 785 922 589 354 1418 505 2435 441z m-4053 -376 c22 -20 23 -70 1 -95 -20 -23 -80 -24 -105 -1 -26 23 -24 78 4 97 29 21 77 20 100 -1z m-280 -10 c26 -23 24 -78 -4 -97 -29 -21 -77 -20 -100 1 -22 20 -23 70 -1 95 20 23 80 24 105 1z m-299 -14 c29 -16 37 -28 37 -60 0 -69 -115 -89 -140 -24 -24 62 42 115 103 84z m-280 -40 c29 -16 37 -28 37 -61 0 -31 -41 -68 -74 -68 -37 0 -66 28 -66 63 0 37 7 49 35 65 26 15 41 15 68 1z m-272 -60 c47 -25 42 -95 -8 -118 -34 -16 -47 -14 -77 10 -66 52 10 149 85 108z m5052 -26 l97 -6 0 -797 c0 -438 -3 -952 -7 -1142 l-6 -345 -33 43 c-30 39 -32 45 -22 78 11 34 10 38 -22 71 -34 35 -35 35 -122 35 -63 0 -98 5 -121 17 -47 24 -92 32 -131 23 -31 -7 -35 -5 -40 15 -8 33 -78 92 -126 106 -30 9 -55 10 -90 3 -47 -10 -48 -10 -75 24 -50 62 -146 88 -224 61 -28 -10 -34 -8 -67 21 -44 38 -65 46 -137 54 -30 3 -64 9 -74 13 -10 3 -64 49 -119 102 -128 120 -159 145 -207 161 -21 6 -53 24 -70 40 -18 15 -42 32 -54 39 -32 16 -31 51 2 51 32 0 100 15 201 46 44 13 94 24 111 24 17 0 35 6 41 13 9 10 -1 21 -46 47 -31 19 -72 47 -90 62 -18 15 -37 28 -43 28 -35 0 49 264 104 330 15 17 27 36 27 42 0 5 14 41 31 80 17 38 29 71 27 72 -2 1 -19 9 -38 16 -19 7 -47 21 -61 31 -23 16 -59 19 -290 23 -348 7 -519 15 -519 25 0 4 28 28 63 52 344 248 890 405 1537 442 111 7 498 7 593 0z m-5301 -66 c4 -7 8 -26 8 -44 0 -55 -68 -82 -118 -47 -18 12 -22 24 -20 52 2 31 9 40 37 54 35 17 77 11 93 -15z m-275 -81 c6 -6 15 -23 18 -38 15 -60 -80 -103 -125 -58 -35 35 -24 85 24 106 32 14 62 10 83 -10z m-269 -102 c15 -10 22 -25 22 -47 0 -38 -7 -50 -37 -66 -32 -16 -56 -14 -81 9 -29 27 -28 65 3 95 28 29 61 32 93 9z m-250 -124 c29 -27 28 -65 -3 -95 -29 -30 -64 -32 -95 -7 -32 26 -30 70 4 99 33 28 65 29 94 3z m478 -7 c19 3 34 2 34 -4 0 -5 -11 -35 -24 -67 -13 -31 -47 -127 -75 -213 -28 -86 -66 -178 -82 -205 -31 -49 -63 -131 -166 -434 -37 -108 -65 -176 -84 -197 -15 -17 -30 -45 -33 -61 -4 -16 -31 -52 -60 -81 l-53 -53 -39 47 c-39 48 -135 155 -273 305 -70 76 -76 80 -116 80 -49 0 -68 -16 -90 -79 -8 -23 -30 -68 -49 -99 -18 -31 -46 -92 -62 -134 l-29 -78 -38 0 c-29 0 -64 15 -150 67 -62 37 -123 77 -137 89 -14 12 -37 26 -52 29 -32 8 -70 45 -46 45 46 0 138 105 138 157 0 14 13 21 51 30 29 7 67 24 85 38 34 26 74 91 74 120 0 10 10 15 33 15 72 1 151 60 178 134 11 32 16 34 65 38 68 6 126 45 155 104 20 42 23 44 64 44 24 0 55 4 69 10 36 13 103 77 110 104 5 21 11 23 63 22 73 -1 144 36 172 91 l18 36 64 -1 c77 -3 131 23 168 80 22 34 25 36 53 26 16 -6 45 -8 64 -5z m-724 -130 c55 -50 -18 -147 -84 -112 -30 16 -38 28 -38 61 0 53 81 88 122 51z m-240 -150 c28 -25 24 -77 -8 -102 -15 -12 -34 -21 -44 -21 -31 0 -70 39 -70 70 0 55 81 91 122 53z m-234 -159 c30 -21 30 -76 0 -104 -59 -54 -154 18 -105 81 30 38 70 48 105 23z m-216 -181 c28 -25 24 -77 -8 -102 -36 -28 -68 -26 -93 5 -27 35 -26 59 4 89 28 29 70 32 97 8z m-203 -199 c27 -35 26 -46 -5 -84 -33 -39 -77 -39 -107 1 -50 69 60 150 112 83z m-202 -196 c29 -27 29 -57 2 -92 -24 -31 -72 -35 -101 -9 -28 25 -24 77 8 102 34 27 62 27 91 -1z m-187 -208 c40 -40 16 -112 -42 -126 -21 -4 -33 0 -52 20 -34 33 -33 61 3 97 34 34 63 37 91 9z m170 -59 c0 -16 5 -42 11 -58 7 -15 16 -73 21 -128 5 -55 13 -138 19 -185 5 -47 13 -123 18 -170 5 -47 12 -108 16 -136 7 -52 -4 -89 -44 -140 -14 -17 -21 -19 -41 -12 -14 6 -52 14 -85 19 -33 5 -85 14 -115 19 -96 17 -174 30 -220 36 -93 11 -90 9 -90 67 1 51 1 52 43 72 57 27 96 86 104 156 5 53 6 54 53 75 56 26 100 89 108 159 4 39 8 45 34 50 63 14 137 110 138 178 0 17 5 27 15 27 10 0 15 -10 15 -29z m-338 -168 c41 -37 4 -123 -53 -123 -35 0 -69 31 -69 64 0 13 9 35 21 50 24 31 72 35 101 9z m6160 0 c44 -39 10 -113 -52 -113 -61 0 -93 68 -53 112 20 23 80 24 105 1z m-281 -14 c28 -28 22 -76 -13 -102 -55 -41 -121 8 -104 77 11 46 81 61 117 25z m564 1 c40 -44 9 -110 -52 -110 -61 0 -92 58 -57 108 20 29 83 31 109 2z m264 -25 c50 -25 47 -96 -5 -115 -74 -29 -138 56 -84 110 24 24 51 25 89 5z m266 -59 c39 -17 54 -53 37 -91 -21 -46 -98 -45 -129 1 -21 32 -9 73 27 91 31 16 24 16 65 -1z m276 -97 c46 -24 42 -95 -7 -118 -29 -13 -80 3 -94 29 -34 64 35 125 101 89z m-1457 -30 c33 -26 35 -73 4 -106 -42 -45 -108 -15 -108 50 0 37 7 49 35 65 28 16 39 15 69 -9z m-5956 -5 c49 -34 14 -124 -48 -124 -32 0 -70 30 -70 55 0 22 27 72 42 78 25 10 54 7 76 -9z m7661 -89 c46 -23 54 -65 19 -102 -36 -38 -89 -27 -116 24 -17 31 -15 41 13 68 28 29 45 31 84 10z m-7804 -160 c14 -13 25 -34 25 -45 0 -24 -51 -80 -73 -80 -29 0 -67 40 -67 71 0 35 39 79 70 79 12 0 32 -11 45 -25z m8052 -7 c29 -27 30 -71 3 -98 -60 -60 -160 39 -103 102 22 25 71 23 100 -4z m-1944 -30 c36 -43 7 -118 -46 -118 -40 0 -67 27 -67 68 0 42 6 54 35 70 25 14 55 6 78 -20z m2072 -257 c-10 -10 -35 31 -35 58 0 13 8 33 18 44 16 19 17 17 20 -38 2 -31 0 -60 -3 -64z m-604 64 c41 -30 101 -58 192 -92 l69 -25 38 26 c22 14 49 39 61 56 17 22 31 30 54 30 28 0 32 -4 43 -44 14 -55 61 -110 113 -132 l39 -18 0 -173 0 -173 -107 90 c-147 124 -319 238 -479 317 -74 36 -134 70 -134 75 0 5 9 27 20 48 24 47 43 50 91 15z m-7706 -20 c29 -28 33 -50 8 -40 -10 4 -38 14 -62 23 -41 14 -43 16 -26 28 28 20 53 17 80 -11z m-563 -20 c403 -47 774 -201 1083 -450 360 -289 619 -693 730 -1135 62 -248 79 -578 41 -825 -191 -1249 -1413 -2051 -2635 -1730 -418 110 -797 352 -1076 686 l-72 86 -6 -1170 c-4 -644 -7 -1535 -7 -1981 0 -769 -1 -813 -19 -851 -67 -143 -245 -169 -349 -51 -17 20 -36 54 -42 77 -8 29 -9 784 -2 2752 11 3006 5 2773 77 3041 60 222 154 431 280 620 438 660 1217 1022 1997 931z m2568 0 c242 -29 459 -90 660 -186 649 -310 1088 -903 1196 -1614 15 -101 16 -327 15 -2620 -1 -2712 -3 -2909 -31 -2965 -35 -69 -104 -110 -185 -110 -82 0 -149 40 -186 112 -18 36 -19 91 -19 2023 l0 1986 -75 -90 c-187 -222 -454 -427 -714 -548 -647 -300 -1393 -259 -1999 110 l-83 50 68 60 c37 33 107 100 154 149 l87 89 133 -65 c651 -318 1422 -191 1935 319 297 295 469 674 494 1085 14 244 -10 440 -81 652 -209 627 -764 1074 -1424 1148 -327 36 -676 -29 -963 -181 l-93 -49 -84 88 c-46 49 -116 115 -155 148 -82 68 -87 55 57 140 374 222 854 322 1293 269z m2375 -150 c14 -13 25 -35 25 -49 0 -30 -42 -66 -77 -66 -29 0 -73 42 -73 70 0 29 44 70 75 70 14 0 37 -11 50 -25z m-275 -15 c26 -26 25 -51 -1 -84 -23 -29 -72 -36 -102 -13 -28 21 -32 72 -8 96 28 28 84 28 111 1z m554 -11 c35 -28 33 -73 -5 -102 -24 -17 -31 -18 -64 -7 -23 8 -40 21 -46 37 -13 35 -12 41 16 68 30 31 64 32 99 4z m-834 -39 c38 -38 16 -103 -39 -115 -56 -12 -98 33 -79 85 19 52 81 67 118 30z m1095 -22 c47 -21 46 -95 -1 -117 -49 -22 -104 12 -104 65 0 53 49 78 105 52z m-1356 -74 c8 -7 14 -27 14 -45 0 -61 -80 -92 -123 -49 -35 35 -24 85 24 106 33 14 62 10 85 -12z m1625 -45 c61 -48 7 -139 -65 -108 -49 20 -65 75 -32 111 21 24 64 23 97 -3z m-1874 -89 c11 -11 20 -29 20 -40 0 -19 -5 -17 -45 17 -25 20 -45 39 -45 40 0 12 54 -1 70 -17z m-509 -466 c21 -24 22 -26 3 -16 -25 13 -50 42 -37 42 5 0 20 -12 34 -26z m-93 -120 c29 -20 30 -72 1 -103 -31 -33 -89 -26 -107 12 -11 23 -11 34 -2 58 21 49 66 63 108 33z m6292 -134 c20 -20 27 -74 12 -96 -4 -6 -17 -16 -29 -23 -23 -12 -23 -11 -23 64 0 79 7 88 40 55z m-6420 -120 c26 -26 25 -60 -1 -94 -42 -53 -128 -18 -115 47 13 64 74 89 116 47z m6470 -160 c24 -24 26 -67 4 -98 -12 -18 -24 -22 -52 -20 l-37 3 -3 54 c-2 29 -1 60 2 67 8 21 63 17 86 -6z m-6585 -90 c36 -14 49 -52 31 -95 -17 -39 -54 -54 -91 -37 -47 22 -44 104 5 129 30 15 24 15 55 3z m6614 -196 c34 -43 23 -96 -25 -114 -51 -20 -104 29 -90 84 15 60 79 76 115 30z m-6649 -94 c30 -30 27 -83 -7 -110 -48 -38 -103 -8 -103 57 0 40 30 73 65 73 14 0 34 -9 45 -20z m6651 -179 c48 -39 18 -131 -43 -131 -27 0 -68 44 -68 73 0 34 37 77 65 77 12 0 33 -8 46 -19z m-6667 -102 c19 -15 26 -30 26 -54 0 -36 -36 -75 -69 -75 -37 0 -61 29 -61 75 0 34 5 47 22 59 30 21 50 20 82 -5z m6660 -180 c34 -27 36 -79 4 -109 -45 -42 -108 -14 -108 48 0 42 6 54 35 70 28 16 39 15 69 -9z m-6629 -104 c61 -60 -1 -155 -75 -115 -25 13 -41 65 -30 95 18 48 68 58 105 20z m6610 -180 c30 -30 32 -64 4 -99 -49 -62 -135 -4 -108 72 18 52 67 65 104 27z m-6530 -99 c38 -58 -5 -128 -69 -112 -36 9 -62 66 -45 99 16 30 28 37 66 37 24 0 37 -7 48 -24z m6489 -177 c32 -25 34 -66 5 -103 -24 -30 -57 -34 -88 -8 -49 39 -18 127 45 131 6 1 23 -8 38 -20z m-6380 -81 c24 -33 20 -84 -6 -102 -31 -22 -61 -20 -85 7 -28 31 -35 55 -21 80 15 30 27 37 65 37 22 0 37 -7 47 -22z m6328 -195 c23 -28 28 -50 17 -82 -20 -56 -91 -63 -119 -11 -36 67 54 149 102 93z m-6182 -45 c40 -44 12 -118 -45 -118 -31 0 -75 44 -75 74 0 62 77 90 120 44z m6117 -230 c21 -17 16 -85 -7 -108 -42 -42 -110 -10 -110 50 0 44 42 84 78 75 15 -4 33 -11 39 -17z m-92 -273 c29 -28 31 -45 10 -84 -19 -38 -60 -48 -94 -23 -37 27 -40 74 -7 107 32 32 60 32 91 0z m-5465 -95 c0 -62 -7 -71 -34 -44 -21 20 -20 63 1 86 26 29 33 21 33 -42z m1808 4 c32 -22 30 -76 -4 -103 -34 -26 -68 -27 -94 -1 -29 29 -26 74 6 99 32 25 61 27 92 5z m-256 -111 c18 -16 24 -59 10 -79 -11 -17 -48 -34 -73 -34 -52 0 -79 71 -42 112 20 23 80 24 105 1z m3791 -44 c30 -16 37 -28 37 -66 0 -37 -32 -73 -65 -73 -63 0 -88 78 -40 125 27 28 37 30 68 14z m-4060 -30 c34 -47 1 -99 -63 -99 -65 0 -94 67 -48 110 32 29 85 24 111 -11z m-411 0 c14 -8 23 -8 31 0 14 14 52 14 78 0 41 -21 44 -86 5 -111 -16 -11 -84 -10 -91 2 -4 7 -12 7 -25 0 -35 -19 -77 -12 -99 16 -12 15 -21 32 -21 39 0 7 9 24 21 39 22 28 64 35 101 15z m4374 -245 c20 -19 24 -31 19 -52 -14 -59 -74 -84 -115 -47 -26 23 -25 65 1 99 26 33 62 34 95 0z m-8487 -140 c41 -52 17 -114 -45 -114 -37 0 -74 37 -74 74 0 61 82 87 119 40z m8349 -100 c48 -34 14 -124 -48 -124 -30 0 -70 33 -70 57 0 21 28 70 42 76 25 10 54 7 76 -9z m-8213 -139 c65 -64 -11 -163 -78 -103 -40 35 -44 72 -13 102 32 33 60 33 91 1z m8067 -102 c10 -9 18 -30 18 -50 0 -69 -78 -99 -119 -46 -49 61 43 149 101 96z m-7907 -138 c30 -29 32 -68 5 -95 -29 -29 -74 -26 -99 6 -26 34 -27 68 -1 94 27 27 66 25 95 -5z m7743 -91 c29 -20 30 -76 2 -104 -39 -39 -120 -12 -120 39 0 28 48 81 74 81 12 0 32 -7 44 -16z m-7577 -133 c16 -16 29 -39 29 -51 0 -27 -43 -70 -70 -70 -11 0 -32 11 -45 25 -34 33 -33 77 1 104 36 28 50 26 85 -8z m7403 -92 c31 -25 33 -57 5 -93 -39 -49 -119 -25 -119 36 0 33 39 78 68 78 11 0 31 -9 46 -21z m-7219 -124 c47 -46 23 -115 -41 -115 -61 0 -96 78 -54 120 27 27 66 25 95 -5z m7029 -86 c34 -26 34 -68 2 -99 -71 -65 -159 27 -91 95 30 30 54 31 89 4z m-6835 -112 c39 -32 31 -100 -14 -117 -33 -12 -69 2 -91 35 -42 65 43 131 105 82z m6641 -87 c42 -42 8 -120 -53 -120 -66 0 -90 70 -41 115 33 30 67 32 94 5z m-6433 -112 c43 -41 17 -118 -41 -118 -31 0 -76 43 -76 72 0 63 70 90 117 46z m6223 -78 c27 -27 25 -66 -5 -95 -45 -46 -115 -22 -115 40 0 62 77 98 120 55z m-6005 -105 c14 -13 25 -34 25 -46 0 -30 -38 -69 -65 -69 -37 0 -75 37 -75 72 0 66 68 91 115 43z m5780 -70 c52 -51 11 -122 -67 -116 -45 3 -66 82 -30 113 38 34 66 35 97 3z m-5547 -101 c27 -30 28 -54 4 -85 -49 -60 -150 3 -122 76 19 49 77 53 118 9z m5325 -66 c23 -27 22 -52 -6 -84 -31 -35 -82 -38 -109 -5 -22 28 -23 50 -2 79 31 45 83 49 117 10z m-5095 -78 c14 -14 22 -33 22 -55 0 -63 -71 -84 -120 -35 -62 62 34 149 98 90z m4847 -65 c14 -13 25 -33 25 -45 0 -31 -44 -70 -79 -70 -31 0 -71 32 -71 56 0 25 23 62 44 72 34 17 55 14 81 -13z m-4601 -76 c35 -28 35 -70 -1 -99 -46 -36 -113 -4 -113 53 0 63 61 87 114 46z m4360 -61 c22 -32 20 -55 -9 -83 -42 -43 -107 -29 -120 27 -15 62 93 108 129 56z m-4101 -65 c22 -20 22 -71 0 -95 -36 -40 -123 -4 -123 52 0 60 75 86 123 43z m3831 -44 c50 -39 18 -119 -47 -119 -95 0 -86 132 9 139 6 1 23 -8 38 -20z m-3571 -66 c25 -23 22 -78 -5 -97 -31 -22 -60 -20 -92 5 -26 20 -35 61 -18 85 24 35 79 39 115 7z m3321 -45 c22 -31 20 -58 -6 -85 -21 -23 -71 -31 -94 -15 -13 8 -34 46 -34 60 0 5 9 21 21 36 27 35 90 37 113 4z m-3054 -48 c42 -42 13 -110 -46 -110 -35 0 -84 35 -84 60 0 16 21 53 34 62 22 15 76 8 96 -12z m2774 -31 c17 -13 26 -30 26 -49 0 -19 -9 -36 -26 -49 -76 -59 -162 34 -90 96 33 28 56 29 90 2z m-2501 -51 c37 -43 6 -108 -53 -108 -73 0 -98 110 -30 133 25 8 64 -4 83 -25z m2232 -23 c32 -31 32 -59 0 -91 -34 -33 -80 -30 -108 8 -25 34 -15 76 23 95 37 19 58 16 85 -12z m-2035 -75 c0 -33 -3 -60 -7 -60 -15 0 -43 35 -43 54 0 24 26 66 41 66 5 0 9 -27 9 -60z m1764 18 c36 -50 4 -108 -58 -108 -25 0 -40 7 -55 27 -23 28 -21 54 7 86 23 26 87 23 106 -5z m-282 -35 c24 -21 23 -68 -2 -93 -24 -24 -77 -26 -102 -3 -22 20 -23 70 -1 95 20 23 80 24 105 1z m-567 -28 c30 -29 32 -55 7 -85 -38 -47 -132 -18 -132 42 0 27 45 68 75 68 14 0 37 -11 50 -25z m289 3 c36 -50 4 -108 -58 -108 -25 0 -40 7 -55 26 -12 15 -21 32 -21 39 0 7 9 24 21 39 27 35 90 37 113 4z m-547 -40 c-3 -8 -6 -5 -6 6 -1 11 2 17 5 13 3 -3 4 -12 1 -19z"/>
 <path d="M11397 10460 c-497 -63 -936 -331 -1208 -738 -209 -313 -298 -627 -286 -1007 6 -190 26 -303 83 -475 236 -714 940 -1197 1685 -1156 547 30 1024 300 1330 754 208 309 313 712 279 1068 -37 386 -166 694 -409 979 -240 282 -615 496 -981 560 -110 19 -393 28 -493 15z m-297 -247 c0 -29 -42 -73 -68 -73 -28 0 -61 31 -64 60 -3 21 5 27 52 47 51 20 56 21 68 6 6 -9 12 -27 12 -40z m1353 -117 c103 -67 145 -101 231 -184 l68 -67 -38 -3 c-22 -2 -64 3 -94 11 -93 25 -149 37 -178 37 -22 0 -34 12 -68 63 -30 46 -39 67 -33 82 4 11 8 41 8 68 1 27 6 47 12 47 6 0 48 -24 92 -54z m-1785 -102 c49 -34 47 -105 -3 -124 -76 -29 -138 88 -68 129 26 15 45 13 71 -5z m401 -1 c11 -10 24 -32 27 -50 5 -26 1 -37 -19 -57 -15 -14 -36 -26 -47 -26 -11 0 -32 12 -47 26 -20 20 -24 31 -19 57 7 35 38 67 66 67 10 0 27 -8 39 -17z m-230 -249 c26 -34 27 -68 1 -94 -42 -42 -120 -7 -120 54 0 65 79 91 119 40z m227 -32 c53 -35 27 -132 -35 -132 -32 0 -44 8 -60 37 -26 50 0 103 52 103 18 0 37 -4 43 -8z m-133 -201 c15 -6 30 -24 38 -45 11 -32 15 -34 46 -29 54 9 93 -41 72 -94 -13 -34 -26 -43 -66 -43 -36 0 -63 29 -63 68 0 19 -3 21 -19 12 -30 -16 -50 -12 -76 15 -34 33 -33 77 1 104 30 24 34 24 67 12z m87 -271 c11 -6 25 -28 31 -50 7 -22 18 -45 26 -51 16 -14 17 -80 1 -102 -7 -9 -25 -19 -40 -22 -21 -5 -33 -1 -52 19 -15 14 -26 35 -26 46 0 12 -9 33 -20 47 -28 36 -26 77 6 102 30 23 46 26 74 11z m50 -290 c40 -40 14 -130 -39 -130 -35 0 -71 38 -71 75 0 64 68 97 110 55z m-5 -285 c31 -30 32 -71 3 -102 -43 -45 -108 -18 -108 45 0 42 6 54 35 70 30 17 43 15 70 -13z m-40 -280 c29 -28 30 -34 11 -80 -19 -44 -57 -56 -94 -28 -38 28 -41 75 -8 108 32 32 60 32 91 0z m-85 -265 c35 -35 21 -102 -26 -120 -55 -21 -104 31 -83 88 20 53 72 69 109 32z m-117 -262 c21 -25 21 -40 2 -78 -28 -54 -107 -49 -121 6 -20 80 66 132 119 72z m-163 -228 c25 -25 25 -58 1 -90 -22 -27 -18 -29 -93 39 l-28 25 22 23 c27 29 71 30 98 3z"/>
 <path d="M3818 10455 c-646 -92 -1174 -530 -1377 -1141 -145 -436 -114 -881 89 -1289 172 -346 430 -602 775 -771 397 -193 829 -224 1266 -89 117 36 346 152 459 233 122 86 306 270 392 392 474 668 409 1569 -156 2158 -251 261 -573 434 -931 498 -124 22 -395 27 -517 9z m781 -201 c14 -12 -39 -1 -55 11 -17 13 -16 14 16 3 19 -6 37 -13 39 -14z m-52 -150 c20 -20 24 -31 19 -57 -7 -36 -38 -67 -68 -67 -10 0 -30 12 -45 26 -20 20 -24 31 -19 57 7 36 38 67 68 67 10 0 30 -12 45 -26z m538 -143 c49 -42 106 -97 128 -123 l40 -47 -58 -88 c-168 -259 -260 -547 -272 -853 -14 -367 80 -712 272 -999 30 -45 55 -86 55 -90 0 -27 -293 -286 -311 -275 -4 2 -41 55 -83 118 -338 507 -441 1145 -281 1730 67 244 187 494 328 683 l39 53 28 -16 c15 -9 67 -51 115 -93z m-603 -128 c43 -39 9 -123 -50 -123 -57 0 -86 77 -46 121 21 23 71 25 96 2z m-57 -278 c31 -30 32 -64 4 -99 -28 -35 -73 -33 -102 5 -17 24 -18 31 -7 64 19 56 66 70 105 30z m-51 -265 c43 -16 52 -90 14 -122 -69 -59 -148 43 -83 107 27 28 33 29 69 15z m6 -299 c15 -30 12 -82 -7 -103 -41 -45 -121 3 -109 66 9 43 24 56 67 56 28 0 41 -5 49 -19z m-12 -273 c6 -7 13 -30 17 -51 6 -29 3 -42 -10 -57 -25 -28 -79 -27 -99 2 -36 51 -8 118 48 118 19 0 38 -6 44 -12z m22 -290 c56 -61 -19 -158 -83 -107 -32 24 -37 81 -10 111 22 25 68 23 93 -4z m30 -278 c43 -43 14 -122 -45 -122 -57 0 -88 80 -48 124 21 24 68 23 93 -2z m44 -276 c44 -44 25 -117 -33 -122 -38 -4 -66 17 -75 54 -7 25 8 63 28 76 19 13 64 9 80 -8z m63 -276 c44 -41 19 -128 -37 -128 -31 0 -70 44 -70 80 0 35 31 70 62 70 12 0 32 -10 45 -22z m71 -264 c12 -8 22 -19 22 -23 0 -9 -110 -44 -117 -37 -12 11 9 57 30 66 32 13 40 12 65 -6z"/>
 </g>

</svg>
